<?xml version="1.0" encoding="UTF-8" standalone="no"?>
<!DOCTYPE svg PUBLIC "-//W3C//DTD SVG 1.1//EN"
 "http://www.w3.org/Graphics/SVG/1.1/DTD/svg11.dtd">
<!-- Generated by graphviz version 15.1.0 (20260618.0150)
 -->
<!-- Title: SystemEx.Collections.Generic.Interfaces.ICache Pages: 1 -->
<!--zoomable 944 -->

<svg id="main" version="1.1" xmlns="http://www.w3.org/2000/svg" xmlns:xlink="http://www.w3.org/1999/xlink" xml:space="preserve" onload="init(evt)">

<style type="text/css"><![CDATA[
.node, .edge {opacity: 0.7;}
.node.selected, .edge.selected {opacity: 1;}
.edge:hover path { stroke: red; }
.edge:hover polygon { stroke: red; fill: red; }
]]></style>

<defs>
  <circle id="rim" cx="0" cy="0" r="7"/>
  <circle id="rim2" cx="0" cy="0" r="3.5"/>
  <g id="zoomPlus">
    <use xlink:href="#rim" fill="#404040"><set attributeName="fill" to="#808080" begin="zoomplus.mouseover" end="zoomplus.mouseout"/></use>
    <path d="M-4,0h8M0,-4v8" fill="none" stroke="white" stroke-width="1.5" pointer-events="none"/>
  </g>
  <g id="zoomMin">
    <use xlink:href="#rim" fill="#404040"><set attributeName="fill" to="#808080" begin="zoomminus.mouseover" end="zoomminus.mouseout"/></use>
    <path d="M-4,0h8" fill="none" stroke="white" stroke-width="1.5" pointer-events="none"/>
  </g>
  <g id="arrowUp" transform="translate(30 24)">
    <use xlink:href="#rim"/>
    <path pointer-events="none" fill="none" stroke="white" stroke-width="1.5" d="M0,-3.0v7 M-2.5,-0.5L0,-3.0L2.5,-0.5"/>
  </g>
  <g id="arrowRight" transform="rotate(90) translate(36 -43)">
    <use xlink:href="#rim"/>
    <path pointer-events="none" fill="none" stroke="white" stroke-width="1.5" d="M0,-3.0v7 M-2.5,-0.5L0,-3.0L2.5,-0.5"/>
  </g>
  <g id="arrowDown" transform="rotate(180) translate(-30 -48)">
    <use xlink:href="#rim"/>
    <path pointer-events="none" fill="none" stroke="white" stroke-width="1.5" d="M0,-3.0v7 M-2.5,-0.5L0,-3.0L2.5,-0.5"/>
  </g>
  <g id="arrowLeft" transform="rotate(270) translate(-36 17)">
    <use xlink:href="#rim"/>
    <path pointer-events="none" fill="none" stroke="white" stroke-width="1.5" d="M0,-3.0v7 M-2.5,-0.5L0,-3.0L2.5,-0.5"/>
  </g>
  <g id="resetDef">
    <use xlink:href="#rim2" fill="#404040"><set attributeName="fill" to="#808080" begin="reset.mouseover" end="reset.mouseout"/></use>
  </g>
</defs>
<script type="application/ecmascript">
var viewWidth = 523;
var viewHeight = 944;
var sectionId = 'dynsection-0';
</script>
<script type="application/ecmascript" xlink:href="../../svg.min.js"/>
<svg id="graph" class="graph">
<g id="viewport">
<title>SystemEx.Collections.Generic.Interfaces.ICache</title>
<!-- Node1 -->
<g id="Node000001" class="node">
<title>Node1</title>
<g id="a_Node000001"><a xlink:title=" ">
<polygon fill="#999999" stroke="none" points="308.25,-936 163,-936 163,-616 308.25,-616 308.25,-936"/>
<text xml:space="preserve" text-anchor="start" x="167" y="-922.25" font-family="Helvetica,sans-Serif" font-size="10.00">SystemEx.Collections.Generic.</text>
<text xml:space="preserve" text-anchor="start" x="196.62" y="-910.25" font-family="Helvetica,sans-Serif" font-size="10.00">Interfaces.ICache</text>
<text xml:space="preserve" text-anchor="start" x="183.06" y="-894.25" font-family="Helvetica,sans-Serif" font-size="10.00">+</text>
<text xml:space="preserve" text-anchor="start" x="209.12" y="-894.25" font-family="Helvetica,sans-Serif" font-size="10.00">Length</text>
<text xml:space="preserve" text-anchor="start" x="183.06" y="-878.25" font-family="Helvetica,sans-Serif" font-size="10.00">+</text>
<text xml:space="preserve" text-anchor="start" x="209.12" y="-878.25" font-family="Helvetica,sans-Serif" font-size="10.00">LongLength</text>
<text xml:space="preserve" text-anchor="start" x="183.06" y="-862.25" font-family="Helvetica,sans-Serif" font-size="10.00">+</text>
<text xml:space="preserve" text-anchor="start" x="209.12" y="-862.25" font-family="Helvetica,sans-Serif" font-size="10.00">IsEmpty</text>
<text xml:space="preserve" text-anchor="start" x="183.06" y="-846.25" font-family="Helvetica,sans-Serif" font-size="10.00">+</text>
<text xml:space="preserve" text-anchor="start" x="209.12" y="-846.25" font-family="Helvetica,sans-Serif" font-size="10.00">Type</text>
<text xml:space="preserve" text-anchor="start" x="183.06" y="-830.25" font-family="Helvetica,sans-Serif" font-size="10.00">+</text>
<text xml:space="preserve" text-anchor="start" x="209.12" y="-830.25" font-family="Helvetica,sans-Serif" font-size="10.00">CanWrite</text>
<text xml:space="preserve" text-anchor="start" x="183.06" y="-814.25" font-family="Helvetica,sans-Serif" font-size="10.00">+</text>
<text xml:space="preserve" text-anchor="start" x="209.12" y="-814.25" font-family="Helvetica,sans-Serif" font-size="10.00">CanRead</text>
<text xml:space="preserve" text-anchor="start" x="183.06" y="-798.25" font-family="Helvetica,sans-Serif" font-size="10.00">+</text>
<text xml:space="preserve" text-anchor="start" x="209.12" y="-798.25" font-family="Helvetica,sans-Serif" font-size="10.00">Position</text>
<text xml:space="preserve" text-anchor="start" x="183.06" y="-782.25" font-family="Helvetica,sans-Serif" font-size="10.00">+</text>
<text xml:space="preserve" text-anchor="start" x="209.12" y="-782.25" font-family="Helvetica,sans-Serif" font-size="10.00">Read()</text>
<text xml:space="preserve" text-anchor="start" x="183.06" y="-766.25" font-family="Helvetica,sans-Serif" font-size="10.00">+</text>
<text xml:space="preserve" text-anchor="start" x="209.12" y="-766.25" font-family="Helvetica,sans-Serif" font-size="10.00">Write()</text>
<text xml:space="preserve" text-anchor="start" x="183.06" y="-750.25" font-family="Helvetica,sans-Serif" font-size="10.00">+</text>
<text xml:space="preserve" text-anchor="start" x="209.12" y="-750.25" font-family="Helvetica,sans-Serif" font-size="10.00">Write()</text>
<text xml:space="preserve" text-anchor="start" x="183.06" y="-734.25" font-family="Helvetica,sans-Serif" font-size="10.00">+</text>
<text xml:space="preserve" text-anchor="start" x="209.12" y="-734.25" font-family="Helvetica,sans-Serif" font-size="10.00">Write()</text>
<text xml:space="preserve" text-anchor="start" x="183.06" y="-718.25" font-family="Helvetica,sans-Serif" font-size="10.00">+</text>
<text xml:space="preserve" text-anchor="start" x="209.12" y="-718.25" font-family="Helvetica,sans-Serif" font-size="10.00">Write()</text>
<text xml:space="preserve" text-anchor="start" x="183.06" y="-702.25" font-family="Helvetica,sans-Serif" font-size="10.00">+</text>
<text xml:space="preserve" text-anchor="start" x="209.12" y="-702.25" font-family="Helvetica,sans-Serif" font-size="10.00">Write()</text>
<text xml:space="preserve" text-anchor="start" x="183.06" y="-686.25" font-family="Helvetica,sans-Serif" font-size="10.00">+</text>
<text xml:space="preserve" text-anchor="start" x="209.12" y="-686.25" font-family="Helvetica,sans-Serif" font-size="10.00">Write()</text>
<text xml:space="preserve" text-anchor="start" x="183.06" y="-670.25" font-family="Helvetica,sans-Serif" font-size="10.00">+</text>
<text xml:space="preserve" text-anchor="start" x="209.12" y="-670.25" font-family="Helvetica,sans-Serif" font-size="10.00">Write()</text>
<text xml:space="preserve" text-anchor="start" x="183.06" y="-654.25" font-family="Helvetica,sans-Serif" font-size="10.00">+</text>
<text xml:space="preserve" text-anchor="start" x="209.12" y="-654.25" font-family="Helvetica,sans-Serif" font-size="10.00">Write()</text>
<text xml:space="preserve" text-anchor="start" x="183.06" y="-638.25" font-family="Helvetica,sans-Serif" font-size="10.00">+</text>
<text xml:space="preserve" text-anchor="start" x="209.12" y="-638.25" font-family="Helvetica,sans-Serif" font-size="10.00">Write()</text>
<text xml:space="preserve" text-anchor="start" x="209.12" y="-622.25" font-family="Helvetica,sans-Serif" font-size="10.00">and 17 more...</text>
<polygon fill="#666666" stroke="#666666" points="163,-906 163,-906 308.25,-906 308.25,-906 163,-906"/>
<polygon fill="#666666" stroke="#666666" points="163,-794 163,-794 207.12,-794 207.12,-794 163,-794"/>
<polygon fill="#666666" stroke="#666666" points="207.12,-794 207.12,-794 308.25,-794 308.25,-794 207.12,-794"/>
<polygon fill="none" stroke="#666666" points="163,-616 163,-936 308.25,-936 308.25,-616 163,-616"/>
</a>
</g>
</g>
<!-- Node2 -->
<g id="Node000002" class="node">
<title>Node2</title>
<g id="a_Node000002"><a xlink:href="../../df/dfd/class_system_ex_1_1_collections_1_1_generic_1_1_cache.html" target="_top" xlink:title="Represents a low&#45;level byte buffer with position tracking, typed read/write helpers,...">
<polygon fill="white" stroke="none" points="308.25,-580 163,-580 163,-164 308.25,-164 308.25,-580"/>
<text xml:space="preserve" text-anchor="start" x="167" y="-566.25" font-family="Helvetica,sans-Serif" font-size="10.00">SystemEx.Collections.Generic.</text>
<text xml:space="preserve" text-anchor="start" x="221.38" y="-554.25" font-family="Helvetica,sans-Serif" font-size="10.00">Cache</text>
<text xml:space="preserve" text-anchor="start" x="179.12" y="-538.25" font-family="Helvetica,sans-Serif" font-size="10.00">+</text>
<text xml:space="preserve" text-anchor="start" x="201.25" y="-538.25" font-family="Helvetica,sans-Serif" font-size="10.00">IsLocked</text>
<text xml:space="preserve" text-anchor="start" x="179.12" y="-522.25" font-family="Helvetica,sans-Serif" font-size="10.00">+</text>
<text xml:space="preserve" text-anchor="start" x="201.25" y="-522.25" font-family="Helvetica,sans-Serif" font-size="10.00">this[int adress]</text>
<text xml:space="preserve" text-anchor="start" x="179.12" y="-506.25" font-family="Helvetica,sans-Serif" font-size="10.00">+</text>
<text xml:space="preserve" text-anchor="start" x="201.25" y="-506.25" font-family="Helvetica,sans-Serif" font-size="10.00">Length</text>
<text xml:space="preserve" text-anchor="start" x="179.12" y="-490.25" font-family="Helvetica,sans-Serif" font-size="10.00">+</text>
<text xml:space="preserve" text-anchor="start" x="201.25" y="-490.25" font-family="Helvetica,sans-Serif" font-size="10.00">Free</text>
<text xml:space="preserve" text-anchor="start" x="179.12" y="-474.25" font-family="Helvetica,sans-Serif" font-size="10.00">+</text>
<text xml:space="preserve" text-anchor="start" x="201.25" y="-474.25" font-family="Helvetica,sans-Serif" font-size="10.00">Used</text>
<text xml:space="preserve" text-anchor="start" x="179.12" y="-458.25" font-family="Helvetica,sans-Serif" font-size="10.00">+</text>
<text xml:space="preserve" text-anchor="start" x="201.25" y="-458.25" font-family="Helvetica,sans-Serif" font-size="10.00">LongLength</text>
<text xml:space="preserve" text-anchor="start" x="179.12" y="-442.25" font-family="Helvetica,sans-Serif" font-size="10.00">+</text>
<text xml:space="preserve" text-anchor="start" x="201.25" y="-442.25" font-family="Helvetica,sans-Serif" font-size="10.00">IsEmpty</text>
<text xml:space="preserve" text-anchor="start" x="179.12" y="-426.25" font-family="Helvetica,sans-Serif" font-size="10.00">+</text>
<text xml:space="preserve" text-anchor="start" x="201.25" y="-426.25" font-family="Helvetica,sans-Serif" font-size="10.00">Type</text>
<text xml:space="preserve" text-anchor="start" x="179.12" y="-410.25" font-family="Helvetica,sans-Serif" font-size="10.00">+</text>
<text xml:space="preserve" text-anchor="start" x="201.25" y="-410.25" font-family="Helvetica,sans-Serif" font-size="10.00">CanWrite</text>
<text xml:space="preserve" text-anchor="start" x="179.12" y="-394.25" font-family="Helvetica,sans-Serif" font-size="10.00">+</text>
<text xml:space="preserve" text-anchor="start" x="201.25" y="-394.25" font-family="Helvetica,sans-Serif" font-size="10.00">CanRead</text>
<text xml:space="preserve" text-anchor="start" x="179.12" y="-378.25" font-family="Helvetica,sans-Serif" font-size="10.00">+</text>
<text xml:space="preserve" text-anchor="start" x="201.25" y="-378.25" font-family="Helvetica,sans-Serif" font-size="10.00">Position</text>
<text xml:space="preserve" text-anchor="start" x="179.12" y="-362.25" font-family="Helvetica,sans-Serif" font-size="10.00">+</text>
<text xml:space="preserve" text-anchor="start" x="201.25" y="-362.25" font-family="Helvetica,sans-Serif" font-size="10.00">Cache()</text>
<text xml:space="preserve" text-anchor="start" x="179.12" y="-346.25" font-family="Helvetica,sans-Serif" font-size="10.00">+</text>
<text xml:space="preserve" text-anchor="start" x="201.25" y="-346.25" font-family="Helvetica,sans-Serif" font-size="10.00">SetZero()</text>
<text xml:space="preserve" text-anchor="start" x="179.12" y="-330.25" font-family="Helvetica,sans-Serif" font-size="10.00">+</text>
<text xml:space="preserve" text-anchor="start" x="201.25" y="-330.25" font-family="Helvetica,sans-Serif" font-size="10.00">Clear()</text>
<text xml:space="preserve" text-anchor="start" x="179.12" y="-314.25" font-family="Helvetica,sans-Serif" font-size="10.00">+</text>
<text xml:space="preserve" text-anchor="start" x="201.25" y="-314.25" font-family="Helvetica,sans-Serif" font-size="10.00">Cache()</text>
<text xml:space="preserve" text-anchor="start" x="179.12" y="-298.25" font-family="Helvetica,sans-Serif" font-size="10.00">+</text>
<text xml:space="preserve" text-anchor="start" x="201.25" y="-298.25" font-family="Helvetica,sans-Serif" font-size="10.00">Cache()</text>
<text xml:space="preserve" text-anchor="start" x="179.12" y="-282.25" font-family="Helvetica,sans-Serif" font-size="10.00">+</text>
<text xml:space="preserve" text-anchor="start" x="201.25" y="-282.25" font-family="Helvetica,sans-Serif" font-size="10.00">Cache()</text>
<text xml:space="preserve" text-anchor="start" x="179.12" y="-266.25" font-family="Helvetica,sans-Serif" font-size="10.00">+</text>
<text xml:space="preserve" text-anchor="start" x="201.25" y="-266.25" font-family="Helvetica,sans-Serif" font-size="10.00">Seek()</text>
<text xml:space="preserve" text-anchor="start" x="179.12" y="-250.25" font-family="Helvetica,sans-Serif" font-size="10.00">+</text>
<text xml:space="preserve" text-anchor="start" x="201.25" y="-250.25" font-family="Helvetica,sans-Serif" font-size="10.00">WriteRange()</text>
<text xml:space="preserve" text-anchor="start" x="179.12" y="-234.25" font-family="Helvetica,sans-Serif" font-size="10.00">+</text>
<text xml:space="preserve" text-anchor="start" x="201.25" y="-234.25" font-family="Helvetica,sans-Serif" font-size="10.00">WriteRange()</text>
<text xml:space="preserve" text-anchor="start" x="179.12" y="-218.25" font-family="Helvetica,sans-Serif" font-size="10.00">+</text>
<text xml:space="preserve" text-anchor="start" x="201.25" y="-218.25" font-family="Helvetica,sans-Serif" font-size="10.00">Write()</text>
<text xml:space="preserve" text-anchor="start" x="201.25" y="-202.25" font-family="Helvetica,sans-Serif" font-size="10.00">and 28 more...</text>
<text xml:space="preserve" text-anchor="start" x="179.12" y="-186.25" font-family="Helvetica,sans-Serif" font-size="10.00">+</text>
<text xml:space="preserve" text-anchor="start" x="201.25" y="-186.25" font-family="Helvetica,sans-Serif" font-size="10.00">ToBytes&lt; T &gt;()</text>
<text xml:space="preserve" text-anchor="start" x="179.12" y="-170.25" font-family="Helvetica,sans-Serif" font-size="10.00">~</text>
<text xml:space="preserve" text-anchor="start" x="201.25" y="-170.25" font-family="Helvetica,sans-Serif" font-size="10.00">SetSavePosition()</text>
<polygon fill="#666666" stroke="#666666" points="163,-550 163,-550 308.25,-550 308.25,-550 163,-550"/>
<polygon fill="#666666" stroke="#666666" points="163,-374 163,-374 199.25,-374 199.25,-374 163,-374"/>
<polygon fill="#666666" stroke="#666666" points="199.25,-374 199.25,-374 308.25,-374 308.25,-374 199.25,-374"/>
<polygon fill="none" stroke="#666666" points="163,-164 163,-580 308.25,-580 308.25,-164 163,-164"/>
</a>
</g>
</g>
<!-- Node1&#45;&gt;Node2 -->
<g id="edge1_Node000001_Node000002" class="edge">
<title>Node1&#45;&gt;Node2</title>
<g id="a_edge1_Node000001_Node000002"><a xlink:title=" ">
<path fill="none" stroke="#63b8ff" d="M235.62,-604.85C235.62,-596.55 235.62,-588.18 235.62,-579.79"/>
<polygon fill="none" stroke="#63b8ff" points="232.13,-604.61 235.63,-614.61 239.13,-604.61 232.13,-604.61"/>
</a>
</g>
</g>
<!-- Node3 -->
<g id="Node000003" class="node">
<title>Node3</title>
<g id="a_Node000003"><a xlink:href="../../de/d81/class_system_ex_1_1_collections_1_1_generic_1_1_mirrored_cache.html" target="_top" xlink:title=" ">
<polygon fill="white" stroke="none" points="145.25,-128 0,-128 0,0 145.25,0 145.25,-128"/>
<text xml:space="preserve" text-anchor="start" x="4" y="-114.25" font-family="Helvetica,sans-Serif" font-size="10.00">SystemEx.Collections.Generic.</text>
<text xml:space="preserve" text-anchor="start" x="40.75" y="-102.25" font-family="Helvetica,sans-Serif" font-size="10.00">MirroredCache</text>
<text xml:space="preserve" text-anchor="start" x="18.38" y="-86.25" font-family="Helvetica,sans-Serif" font-size="10.00">+</text>
<text xml:space="preserve" text-anchor="start" x="42.75" y="-86.25" font-family="Helvetica,sans-Serif" font-size="10.00">Primary</text>
<text xml:space="preserve" text-anchor="start" x="18.38" y="-70.25" font-family="Helvetica,sans-Serif" font-size="10.00">+</text>
<text xml:space="preserve" text-anchor="start" x="42.75" y="-70.25" font-family="Helvetica,sans-Serif" font-size="10.00">Secondary</text>
<text xml:space="preserve" text-anchor="start" x="18.38" y="-54.25" font-family="Helvetica,sans-Serif" font-size="10.00">+</text>
<text xml:space="preserve" text-anchor="start" x="42.75" y="-54.25" font-family="Helvetica,sans-Serif" font-size="10.00">Size</text>
<text xml:space="preserve" text-anchor="start" x="18.38" y="-38.25" font-family="Helvetica,sans-Serif" font-size="10.00">+</text>
<text xml:space="preserve" text-anchor="start" x="42.75" y="-38.25" font-family="Helvetica,sans-Serif" font-size="10.00">MirroredCache()</text>
<text xml:space="preserve" text-anchor="start" x="18.38" y="-22.25" font-family="Helvetica,sans-Serif" font-size="10.00">+</text>
<text xml:space="preserve" text-anchor="start" x="42.75" y="-22.25" font-family="Helvetica,sans-Serif" font-size="10.00">WriteRange()</text>
<text xml:space="preserve" text-anchor="start" x="18.38" y="-6.25" font-family="Helvetica,sans-Serif" font-size="10.00">+</text>
<text xml:space="preserve" text-anchor="start" x="42.75" y="-6.25" font-family="Helvetica,sans-Serif" font-size="10.00">ReadRange()</text>
<polygon fill="#bfbfbf" stroke="#bfbfbf" points="0,-98 0,-98 145.25,-98 145.25,-98 0,-98"/>
<polygon fill="#bfbfbf" stroke="#bfbfbf" points="0,-50 0,-50 40.75,-50 40.75,-50 0,-50"/>
<polygon fill="#bfbfbf" stroke="#bfbfbf" points="40.75,-50 40.75,-50 145.25,-50 145.25,-50 40.75,-50"/>
<polygon fill="none" stroke="#bfbfbf" points="0,0 0,-128 145.25,-128 145.25,0 0,0"/>
</a>
</g>
</g>
<!-- Node2&#45;&gt;Node3 -->
<g id="edge2_Node000002_Node000003" class="edge">
<title>Node2&#45;&gt;Node3</title>
<g id="a_edge2_Node000002_Node000003"><a xlink:title=" ">
<path fill="none" stroke="#63b8ff" d="M157.8,-224.91C139.61,-190.76 121.18,-156.14 106.13,-127.9"/>
<polygon fill="none" stroke="#63b8ff" points="154.68,-226.49 162.47,-233.67 160.86,-223.19 154.68,-226.49"/>
</a>
</g>
</g>
<!-- Node4 -->
<g id="Node000004" class="node">
<title>Node4</title>
<g id="a_Node000004"><a xlink:href="../../d4/db0/class_system_ex_1_1_collections_1_1_generic_1_1_stripped_cache.html" target="_top" xlink:title=" ">
<polygon fill="white" stroke="none" points="308.25,-128 163,-128 163,0 308.25,0 308.25,-128"/>
<text xml:space="preserve" text-anchor="start" x="167" y="-114.25" font-family="Helvetica,sans-Serif" font-size="10.00">SystemEx.Collections.Generic.</text>
<text xml:space="preserve" text-anchor="start" x="203.38" y="-102.25" font-family="Helvetica,sans-Serif" font-size="10.00">StrippedCache</text>
<text xml:space="preserve" text-anchor="start" x="181.19" y="-86.25" font-family="Helvetica,sans-Serif" font-size="10.00">+</text>
<text xml:space="preserve" text-anchor="start" x="205.38" y="-86.25" font-family="Helvetica,sans-Serif" font-size="10.00">Length</text>
<text xml:space="preserve" text-anchor="start" x="181.19" y="-70.25" font-family="Helvetica,sans-Serif" font-size="10.00">+</text>
<text xml:space="preserve" text-anchor="start" x="205.38" y="-70.25" font-family="Helvetica,sans-Serif" font-size="10.00">AsFlexSpan()</text>
<text xml:space="preserve" text-anchor="start" x="181.19" y="-54.25" font-family="Helvetica,sans-Serif" font-size="10.00">+</text>
<text xml:space="preserve" text-anchor="start" x="205.38" y="-54.25" font-family="Helvetica,sans-Serif" font-size="10.00">StrippedCache()</text>
<text xml:space="preserve" text-anchor="start" x="181.19" y="-38.25" font-family="Helvetica,sans-Serif" font-size="10.00">+</text>
<text xml:space="preserve" text-anchor="start" x="205.38" y="-38.25" font-family="Helvetica,sans-Serif" font-size="10.00">WriteRange()</text>
<text xml:space="preserve" text-anchor="start" x="181.19" y="-22.25" font-family="Helvetica,sans-Serif" font-size="10.00">+</text>
<text xml:space="preserve" text-anchor="start" x="205.38" y="-22.25" font-family="Helvetica,sans-Serif" font-size="10.00">WriteRange()</text>
<text xml:space="preserve" text-anchor="start" x="181.19" y="-6.25" font-family="Helvetica,sans-Serif" font-size="10.00">+</text>
<text xml:space="preserve" text-anchor="start" x="205.38" y="-6.25" font-family="Helvetica,sans-Serif" font-size="10.00">ToArray()</text>
<polygon fill="#bfbfbf" stroke="#bfbfbf" points="163,-98 163,-98 308.25,-98 308.25,-98 163,-98"/>
<polygon fill="#bfbfbf" stroke="#bfbfbf" points="163,-82 163,-82 203.38,-82 203.38,-82 163,-82"/>
<polygon fill="#bfbfbf" stroke="#bfbfbf" points="203.38,-82 203.38,-82 308.25,-82 308.25,-82 203.38,-82"/>
<polygon fill="none" stroke="#bfbfbf" points="163,0 163,-128 308.25,-128 308.25,0 163,0"/>
</a>
</g>
</g>
<!-- Node2&#45;&gt;Node4 -->
<g id="edge3_Node000002_Node000004" class="edge">
<title>Node2&#45;&gt;Node4</title>
<g id="a_edge3_Node000002_Node000004"><a xlink:title=" ">
<path fill="none" stroke="#63b8ff" d="M235.62,-153.04C235.62,-144.25 235.62,-135.82 235.62,-127.88"/>
<polygon fill="none" stroke="#63b8ff" points="232.13,-152.84 235.63,-162.84 239.13,-152.84 232.13,-152.84"/>
</a>
</g>
</g>
<!-- Node5 -->
<g id="Node000005" class="node">
<title>Node5</title>
<g id="a_Node000005"><a xlink:href="../../da/d1e/class_system_ex_1_1_device_1_1_memory_1_1_device_buffer.html" target="_top" xlink:title="Represents a cache that can be shared with a hardware backend through DeviceSharedBuffer&lt;TDeviceShare...">
<polygon fill="white" stroke="none" points="514.75,-120 326.5,-120 326.5,-8 514.75,-8 514.75,-120"/>
<text xml:space="preserve" text-anchor="start" x="345.25" y="-106.25" font-family="Helvetica,sans-Serif" font-size="10.00">SystemEx.Device.Memory.Device</text>
<text xml:space="preserve" text-anchor="start" x="407.88" y="-94.25" font-family="Helvetica,sans-Serif" font-size="10.00">Buffer</text>
<text xml:space="preserve" text-anchor="start" x="330.5" y="-78.25" font-family="Helvetica,sans-Serif" font-size="10.00">+</text>
<text xml:space="preserve" text-anchor="start" x="340.5" y="-78.25" font-family="Helvetica,sans-Serif" font-size="10.00">IsShared</text>
<text xml:space="preserve" text-anchor="start" x="330.5" y="-62.25" font-family="Helvetica,sans-Serif" font-size="10.00">+</text>
<text xml:space="preserve" text-anchor="start" x="340.5" y="-62.25" font-family="Helvetica,sans-Serif" font-size="10.00">DeviceBuffer()</text>
<text xml:space="preserve" text-anchor="start" x="330.5" y="-46.25" font-family="Helvetica,sans-Serif" font-size="10.00">+</text>
<text xml:space="preserve" text-anchor="start" x="340.5" y="-46.25" font-family="Helvetica,sans-Serif" font-size="10.00">ToShared&lt; TDeviceSharedBackend &gt;()</text>
<text xml:space="preserve" text-anchor="start" x="330.5" y="-30.25" font-family="Helvetica,sans-Serif" font-size="10.00">~</text>
<text xml:space="preserve" text-anchor="start" x="340.5" y="-30.25" font-family="Helvetica,sans-Serif" font-size="10.00">Lock()</text>
<text xml:space="preserve" text-anchor="start" x="330.5" y="-14.25" font-family="Helvetica,sans-Serif" font-size="10.00">~</text>
<text xml:space="preserve" text-anchor="start" x="340.5" y="-14.25" font-family="Helvetica,sans-Serif" font-size="10.00">Unlock()</text>
<polygon fill="#666666" stroke="#666666" points="326.5,-90 326.5,-90 514.75,-90 514.75,-90 326.5,-90"/>
<polygon fill="#666666" stroke="#666666" points="326.5,-74 326.5,-74 338.5,-74 338.5,-74 326.5,-74"/>
<polygon fill="#666666" stroke="#666666" points="338.5,-74 338.5,-74 514.75,-74 514.75,-74 338.5,-74"/>
<polygon fill="none" stroke="#666666" points="326.5,-8 326.5,-120 514.75,-120 514.75,-8 326.5,-8"/>
</a>
</g>
</g>
<!-- Node2&#45;&gt;Node5 -->
<g id="edge4_Node000002_Node000005" class="edge">
<title>Node2&#45;&gt;Node5</title>
<g id="a_edge4_Node000002_Node000005"><a xlink:title=" ">
<path fill="none" stroke="#63b8ff" d="M314.03,-241.31C339.81,-198.68 367.08,-153.57 387.59,-119.65"/>
<polygon fill="none" stroke="#63b8ff" points="311.17,-239.28 308.99,-249.64 317.16,-242.9 311.17,-239.28"/>
</a>
</g>
</g>
</g>
</svg>

<g id="navigator" transform="translate(0 0)" fill="#404254">
  <rect fill="#f2f5e9" fill-opacity="0.5" stroke="#606060" stroke-width=".5" x="0" y="0" width="60" height="60"/>
  <use id="zoomplus" xlink:href="#zoomPlus" x="17" y="9" onmousedown="handleZoom(evt,'in')"/>
  <use id="zoomminus" xlink:href="#zoomMin" x="42" y="9" onmousedown="handleZoom(evt,'out')"/>
  <use id="reset" xlink:href="#resetDef" x="30" y="36" onmousedown="handleReset()"/>
   <use id="arrowup" xlink:href="#arrowUp" x="0" y="0" onmousedown="handlePan(0,-1)"/>
  <use id="arrowright" xlink:href="#arrowRight" x="0" y="0" onmousedown="handlePan(1,0)"/>
  <use id="arrowdown" xlink:href="#arrowDown" x="0" y="0" onmousedown="handlePan(0,1)"/>
  <use id="arrowleft" xlink:href="#arrowLeft" x="0" y="0" onmousedown="handlePan(-1,0)"/>
</g>
<svg viewBox="0 0 15 15" width="100%" height="30px" preserveAspectRatio="xMaxYMin meet">
 <g id="arrow_out" transform="scale(0.3 0.3)">
  <a xlink:href="interface_system_ex_1_1_collections_1_1_generic_1_1_interfaces_1_1_i_cache__inherit__graph_org.svg" target="_base">
   <rect id="button" ry="5" rx="5" y="6" x="6" height="38" width="38"
        fill="#f2f5e9" fill-opacity="0.5" stroke="#606060" stroke-width="1.0"/>
   <path id="arrow"
     d="M 11.500037,31.436501 C 11.940474,20.09759 22.043105,11.32322 32.158766,21.979434 L 37.068811,17.246167 C 37.068811,17.246167 37.088388,32 37.088388,32 L 22.160133,31.978069 C 22.160133,31.978069 26.997745,27.140456 26.997745,27.140456 C 18.528582,18.264221 13.291696,25.230495 11.500037,31.436501 z"
     style="fill:#404040;"/>
  </a>
 </g>
</svg>

<style type='text/css'>
<![CDATA[
[data-mouse-over-selected='false'] { opacity: 0.7; }
[data-mouse-over-selected='true']  { opacity: 1.0; }
]]>
</style>
<script type="application/ecmascript"><![CDATA[
document.addEventListener('DOMContentLoaded', (event) => {
  highlightEdges();
  highlightAdjacentNodes();
});
]]></script>
</svg>
