<?xml version="1.0" encoding="UTF-8" standalone="no"?>
<!DOCTYPE svg PUBLIC "-//W3C//DTD SVG 1.1//EN"
 "http://www.w3.org/Graphics/SVG/1.1/DTD/svg11.dtd">
<!-- Generated by graphviz version 15.0.0 (20260523.1842)
 -->
<!-- Title: SystemEx.Collections.Generic.Interfaces.IIterator&lt; T &gt; Pages: 1 -->
<svg width="794pt" height="290pt"
 viewBox="0.00 0.00 794.00 290.00" xmlns="http://www.w3.org/2000/svg" xmlns:xlink="http://www.w3.org/1999/xlink">
<g id="graph0" class="graph" transform="scale(1 1) rotate(0) translate(4 286)">
<title>SystemEx.Collections.Generic.Interfaces.IIterator&lt; T &gt;</title>
<!-- Node1 -->
<g id="Node000001" class="node">
<title>Node1</title>
<g id="a_Node000001"><a xlink:title="Extends IIterator with cloning support, allowing iterators to be duplicated without affecting the ori...">
<polygon fill="#999999" stroke="#666666" points="342.5,-154 189.25,-154 189.25,-122 342.5,-122 342.5,-154"/>
<text xml:space="preserve" text-anchor="start" x="197.25" y="-140.5" font-family="Helvetica,sans-Serif" font-size="10.00">SystemEx.Collections.Generic.</text>
<text xml:space="preserve" text-anchor="middle" x="265.88" y="-128.5" font-family="Helvetica,sans-Serif" font-size="10.00">Interfaces.IIterator&lt; T &gt;</text>
</a>
</g>
</g>
<!-- Node3 -->
<g id="Node000003" class="node">
<title>Node3</title>
<g id="a_Node000003"><a xlink:href="../../d4/d39/interface_system_ex_1_1_collections_1_1_generic_1_1_interfaces_1_1_i_bidirectional_iterator-1-g.html" target="_top" xlink:title="Represents an iterator that can move both forward and backward.">
<polygon fill="white" stroke="#666666" points="559.5,-265 386.75,-265 386.75,-233 559.5,-233 559.5,-265"/>
<text xml:space="preserve" text-anchor="start" x="394.75" y="-251.5" font-family="Helvetica,sans-Serif" font-size="10.00">SystemEx.Collections.Generic.</text>
<text xml:space="preserve" text-anchor="middle" x="473.12" y="-239.5" font-family="Helvetica,sans-Serif" font-size="10.00">Interfaces.IBidirectionalIterator&lt; T &gt;</text>
</a>
</g>
</g>
<!-- Node1&#45;&gt;Node3 -->
<g id="edge2_Node000001_Node000003" class="edge">
<title>Node1&#45;&gt;Node3</title>
<g id="a_edge2_Node000001_Node000003"><a xlink:title=" ">
<path fill="none" stroke="#63b8ff" d="M292.05,-162.15C313.47,-181.46 345.87,-207.89 378.5,-224 384.99,-227.2 391.94,-230.04 399.01,-232.53"/>
<polygon fill="#63b8ff" stroke="#63b8ff" points="294.42,-159.58 284.69,-155.39 289.69,-164.73 294.42,-159.58"/>
</a>
</g>
</g>
<!-- Node4 -->
<g id="Node000004" class="node">
<title>Node4</title>
<g id="a_Node000004"><a xlink:href="../../d1/dd3/interface_system_ex_1_1_collections_1_1_generic_1_1_interfaces_1_1_i_forward_iterator-1-g.html" target="_top" xlink:title="Represents a forward&#45;only iterator that exposes the current element and an end&#45;of&#45;range indicator.">
<polygon fill="white" stroke="#666666" points="550.5,-215 395.75,-215 395.75,-183 550.5,-183 550.5,-215"/>
<text xml:space="preserve" text-anchor="start" x="403.75" y="-201.5" font-family="Helvetica,sans-Serif" font-size="10.00">SystemEx.Collections.Generic.</text>
<text xml:space="preserve" text-anchor="middle" x="473.12" y="-189.5" font-family="Helvetica,sans-Serif" font-size="10.00">Interfaces.IForwardIterator&lt; T &gt;</text>
</a>
</g>
</g>
<!-- Node1&#45;&gt;Node4 -->
<g id="edge3_Node000001_Node000004" class="edge">
<title>Node1&#45;&gt;Node4</title>
<g id="a_edge3_Node000001_Node000004"><a xlink:title=" ">
<path fill="none" stroke="#63b8ff" d="M333.07,-157.67C360.08,-165.7 390.96,-174.88 416.75,-182.54"/>
<polygon fill="#63b8ff" stroke="#63b8ff" points="334.18,-154.35 323.6,-154.86 332.19,-161.06 334.18,-154.35"/>
</a>
</g>
</g>
<!-- Node7 -->
<g id="Node000007" class="node">
<title>Node7</title>
<g id="a_Node000007"><a xlink:href="../../d8/d85/interface_system_ex_1_1_collections_1_1_generic_1_1_interfaces_1_1_i_random_access_iterator-1-g.html" target="_top" xlink:title="Represents a random&#45;access iterator that supports offset&#45;based movement in addition to forward and ba...">
<polygon fill="white" stroke="#666666" points="567.75,-154 378.5,-154 378.5,-122 567.75,-122 567.75,-154"/>
<text xml:space="preserve" text-anchor="start" x="386.5" y="-140.5" font-family="Helvetica,sans-Serif" font-size="10.00">SystemEx.Collections.Generic.</text>
<text xml:space="preserve" text-anchor="middle" x="473.12" y="-128.5" font-family="Helvetica,sans-Serif" font-size="10.00">Interfaces.IRandomAccessIterator&lt; T &gt;</text>
</a>
</g>
</g>
<!-- Node1&#45;&gt;Node7 -->
<g id="edge6_Node000001_Node000007" class="edge">
<title>Node1&#45;&gt;Node7</title>
<g id="a_edge6_Node000001_Node000007"><a xlink:title=" ">
<path fill="none" stroke="#63b8ff" d="M354.21,-138C362.12,-138 370.16,-138 378.14,-138"/>
<polygon fill="#63b8ff" stroke="#63b8ff" points="354.23,-134.5 344.23,-138 354.23,-141.5 354.23,-134.5"/>
</a>
</g>
</g>
<!-- Node12 -->
<g id="Node000012" class="node">
<title>Node12</title>
<g id="a_Node000012"><a xlink:href="../../d2/d1c/class_system_ex_1_1_collections_1_1_model_1_1_generic_node_iterator-1-g.html" target="_top" xlink:title=" ">
<polygon fill="white" stroke="#bfbfbf" points="546,-104 400.25,-104 400.25,-72 546,-72 546,-104"/>
<text xml:space="preserve" text-anchor="start" x="408.25" y="-90.5" font-family="Helvetica,sans-Serif" font-size="10.00">SystemEx.Collections.Model.</text>
<text xml:space="preserve" text-anchor="middle" x="473.12" y="-78.5" font-family="Helvetica,sans-Serif" font-size="10.00">GenericNodeIterator&lt; T &gt;</text>
</a>
</g>
</g>
<!-- Node1&#45;&gt;Node12 -->
<g id="edge11_Node000001_Node000012" class="edge">
<title>Node1&#45;&gt;Node12</title>
<g id="a_edge11_Node000001_Node000012"><a xlink:title=" ">
<path fill="none" stroke="#63b8ff" d="M345.38,-118.88C364.9,-114.12 385.65,-109.07 404.59,-104.45"/>
<polygon fill="#63b8ff" stroke="#63b8ff" points="344.72,-115.43 335.84,-121.2 346.38,-122.23 344.72,-115.43"/>
</a>
</g>
</g>
<!-- Node13 -->
<g id="Node000013" class="node">
<title>Node13</title>
<g id="a_Node000013"><a xlink:href="../../d0/d6d/class_system_ex_1_1_collections_1_1_model_1_1_node_iterator-1-g.html" target="_top" xlink:title="Forward iterator for intrusive singly&#45;linked Node&lt;T&gt; chains.">
<polygon fill="white" stroke="#666666" points="546,-54 400.25,-54 400.25,-22 546,-22 546,-54"/>
<text xml:space="preserve" text-anchor="start" x="408.25" y="-40.5" font-family="Helvetica,sans-Serif" font-size="10.00">SystemEx.Collections.Model.</text>
<text xml:space="preserve" text-anchor="middle" x="473.12" y="-28.5" font-family="Helvetica,sans-Serif" font-size="10.00">NodeIterator&lt; T &gt;</text>
</a>
</g>
</g>
<!-- Node1&#45;&gt;Node13 -->
<g id="edge12_Node000001_Node000013" class="edge">
<title>Node1&#45;&gt;Node13</title>
<g id="a_edge12_Node000001_Node000013"><a xlink:title=" ">
<path fill="none" stroke="#63b8ff" d="M295.61,-114.78C317.28,-98.28 348.32,-76.71 378.5,-63 385.55,-59.8 393.08,-56.94 400.71,-54.41"/>
<polygon fill="#63b8ff" stroke="#63b8ff" points="293.6,-111.91 287.84,-120.8 297.89,-117.44 293.6,-111.91"/>
</a>
</g>
</g>
<!-- Node2 -->
<g id="Node000002" class="node">
<title>Node2</title>
<g id="a_Node000002"><a xlink:href="../../de/dab/interface_system_ex_1_1_collections_1_1_generic_1_1_interfaces_1_1_i_iterator.html" target="_top" xlink:title=" ">
<polygon fill="white" stroke="#bfbfbf" points="153.25,-154 0,-154 0,-122 153.25,-122 153.25,-154"/>
<text xml:space="preserve" text-anchor="start" x="8" y="-140.5" font-family="Helvetica,sans-Serif" font-size="10.00">SystemEx.Collections.Generic.</text>
<text xml:space="preserve" text-anchor="middle" x="76.62" y="-128.5" font-family="Helvetica,sans-Serif" font-size="10.00">Interfaces.IIterator</text>
</a>
</g>
</g>
<!-- Node2&#45;&gt;Node1 -->
<g id="edge1_Node000001_Node000002" class="edge">
<title>Node2&#45;&gt;Node1</title>
<g id="a_edge1_Node000001_Node000002"><a xlink:title=" ">
<path fill="none" stroke="#63b8ff" d="M164.81,-138C172.85,-138 180.95,-138 188.88,-138"/>
<polygon fill="#63b8ff" stroke="#63b8ff" points="165.03,-134.5 155.03,-138 165.03,-141.5 165.03,-134.5"/>
</a>
</g>
</g>
<!-- Node5 -->
<g id="Node000005" class="node">
<title>Node5</title>
<g id="a_Node000005"><a xlink:href="../../de/db3/class_system_ex_1_1_collections_1_1_generic_1_1_priority_queue_ex_iterator-2-g.html" target="_top" xlink:title=" ">
<polygon fill="white" stroke="#bfbfbf" points="771.25,-282 618,-282 618,-238 771.25,-238 771.25,-282"/>
<text xml:space="preserve" text-anchor="start" x="626" y="-268.5" font-family="Helvetica,sans-Serif" font-size="10.00">SystemEx.Collections.Generic.</text>
<text xml:space="preserve" text-anchor="start" x="626" y="-256.5" font-family="Helvetica,sans-Serif" font-size="10.00">PriorityQueueExIterator&lt;</text>
<text xml:space="preserve" text-anchor="middle" x="694.62" y="-244.5" font-family="Helvetica,sans-Serif" font-size="10.00"> T, TU &gt;</text>
</a>
</g>
</g>
<!-- Node4&#45;&gt;Node5 -->
<g id="edge4_Node000004_Node000005" class="edge">
<title>Node4&#45;&gt;Node5</title>
<g id="a_edge4_Node000004_Node000005"><a xlink:title=" ">
<path fill="none" stroke="#63b8ff" d="M547.24,-218.39C554.18,-220.27 561.1,-222.16 567.75,-224 583.96,-228.48 601.32,-233.38 617.8,-238.08"/>
<polygon fill="#63b8ff" stroke="#63b8ff" points="548.39,-215.08 537.82,-215.85 546.57,-221.83 548.39,-215.08"/>
</a>
</g>
</g>
<!-- Node6 -->
<g id="Node000006" class="node">
<title>Node6</title>
<g id="a_Node000006"><a xlink:href="../../dc/d77/struct_system_ex_1_1_number_range_iterator-1-g.html" target="_top" xlink:title="Forward iterator over a normalized numeric range. Supports stepping by one unit and exposes the curre...">
<polygon fill="white" stroke="#666666" points="785.5,-220 603.75,-220 603.75,-200 785.5,-200 785.5,-220"/>
<text xml:space="preserve" text-anchor="middle" x="694.62" y="-206.5" font-family="Helvetica,sans-Serif" font-size="10.00">SystemEx.NumberRangeIterator&lt; T &gt;</text>
</a>
</g>
</g>
<!-- Node4&#45;&gt;Node6 -->
<g id="edge5_Node000004_Node000006" class="edge">
<title>Node4&#45;&gt;Node6</title>
<g id="a_edge5_Node000004_Node000006"><a xlink:title=" ">
<path fill="none" stroke="#63b8ff" d="M562.16,-203.41C575.72,-204.09 589.73,-204.79 603.34,-205.48"/>
<polygon fill="#63b8ff" stroke="#63b8ff" points="562.57,-199.93 552.41,-202.92 562.22,-206.92 562.57,-199.93"/>
</a>
</g>
</g>
<!-- Node8 -->
<g id="Node000008" class="node">
<title>Node8</title>
<g id="a_Node000008"><a xlink:href="../../d7/d8e/class_system_ex_1_1_collections_1_1_generic_1_1_array_random_access_iterator-1-g.html" target="_top" xlink:title=" ">
<polygon fill="white" stroke="#bfbfbf" points="776.12,-182 613.12,-182 613.12,-150 776.12,-150 776.12,-182"/>
<text xml:space="preserve" text-anchor="start" x="621.12" y="-168.5" font-family="Helvetica,sans-Serif" font-size="10.00">SystemEx.Collections.Generic.</text>
<text xml:space="preserve" text-anchor="middle" x="694.62" y="-156.5" font-family="Helvetica,sans-Serif" font-size="10.00">ArrayRandomAccessIterator&lt; T &gt;</text>
</a>
</g>
</g>
<!-- Node7&#45;&gt;Node8 -->
<g id="edge7_Node000007_Node000008" class="edge">
<title>Node7&#45;&gt;Node8</title>
<g id="a_edge7_Node000007_Node000008"><a xlink:title=" ">
<path fill="none" stroke="#63b8ff" d="M579.39,-151.43C590.66,-152.87 601.99,-154.31 612.9,-155.7"/>
<polygon fill="#63b8ff" stroke="#63b8ff" points="580.03,-147.98 569.67,-150.19 579.15,-154.93 580.03,-147.98"/>
</a>
</g>
</g>
<!-- Node9 -->
<g id="Node000009" class="node">
<title>Node9</title>
<g id="a_Node000009"><a xlink:href="../../d0/dd3/class_system_ex_1_1_collections_1_1_generic_1_1_interfaces_1_1_list_iterator-1-g.html" target="_top" xlink:title=" ">
<polygon fill="white" stroke="#bfbfbf" points="771.25,-132 618,-132 618,-100 771.25,-100 771.25,-132"/>
<text xml:space="preserve" text-anchor="start" x="626" y="-118.5" font-family="Helvetica,sans-Serif" font-size="10.00">SystemEx.Collections.Generic.</text>
<text xml:space="preserve" text-anchor="middle" x="694.62" y="-106.5" font-family="Helvetica,sans-Serif" font-size="10.00">Interfaces.ListIterator&lt; T &gt;</text>
</a>
</g>
</g>
<!-- Node7&#45;&gt;Node9 -->
<g id="edge8_Node000007_Node000009" class="edge">
<title>Node7&#45;&gt;Node9</title>
<g id="a_edge8_Node000007_Node000009"><a xlink:title=" ">
<path fill="none" stroke="#63b8ff" d="M579.46,-127.44C592.34,-126.15 605.31,-124.85 617.65,-123.61"/>
<polygon fill="#63b8ff" stroke="#63b8ff" points="579.28,-123.94 569.67,-128.42 579.97,-130.91 579.28,-123.94"/>
</a>
</g>
</g>
<!-- Node10 -->
<g id="Node000010" class="node">
<title>Node10</title>
<g id="a_Node000010"><a xlink:href="../../dc/d3c/class_system_ex_1_1_collections_1_1_generic_1_1_node_iterrator-1-g.html" target="_top" xlink:title="Iterator for navigating through a doubly linked Node&lt;T&gt; chain. Supports random access,...">
<polygon fill="white" stroke="#666666" points="771.25,-82 618,-82 618,-50 771.25,-50 771.25,-82"/>
<text xml:space="preserve" text-anchor="start" x="626" y="-68.5" font-family="Helvetica,sans-Serif" font-size="10.00">SystemEx.Collections.Generic.</text>
<text xml:space="preserve" text-anchor="middle" x="694.62" y="-56.5" font-family="Helvetica,sans-Serif" font-size="10.00">NodeIterrator&lt; T &gt;</text>
</a>
</g>
</g>
<!-- Node7&#45;&gt;Node10 -->
<g id="edge9_Node000007_Node000010" class="edge">
<title>Node7&#45;&gt;Node10</title>
<g id="a_edge9_Node000007_Node000010"><a xlink:title=" ">
<path fill="none" stroke="#63b8ff" d="M555.19,-117.94C559.48,-116.38 563.69,-114.74 567.75,-113 584.99,-105.62 586.55,-98.47 603.75,-91 611.03,-87.84 618.81,-84.97 626.64,-82.4"/>
<polygon fill="#63b8ff" stroke="#63b8ff" points="554.18,-114.58 545.84,-121.12 556.44,-121.21 554.18,-114.58"/>
</a>
</g>
</g>
<!-- Node11 -->
<g id="Node000011" class="node">
<title>Node11</title>
<g id="a_Node000011"><a xlink:href="../../dc/d3f/class_system_ex_1_1_collections_1_1_model_1_1_linked_node_iterrator-1-g.html" target="_top" xlink:title="Random‑access iterator for intrusive LinkedNode&lt;T&gt; chains.">
<polygon fill="white" stroke="#666666" points="767.5,-32 621.75,-32 621.75,0 767.5,0 767.5,-32"/>
<text xml:space="preserve" text-anchor="start" x="629.75" y="-18.5" font-family="Helvetica,sans-Serif" font-size="10.00">SystemEx.Collections.Model.</text>
<text xml:space="preserve" text-anchor="middle" x="694.62" y="-6.5" font-family="Helvetica,sans-Serif" font-size="10.00">LinkedNodeIterrator&lt; T &gt;</text>
</a>
</g>
</g>
<!-- Node7&#45;&gt;Node11 -->
<g id="edge10_Node000007_Node000011" class="edge">
<title>Node7&#45;&gt;Node11</title>
<g id="a_edge10_Node000007_Node000011"><a xlink:title=" ">
<path fill="none" stroke="#63b8ff" d="M564.25,-115.68C565.45,-114.82 566.61,-113.93 567.75,-113 595.48,-90.39 576.14,-63.75 603.75,-41 609.12,-36.57 615.23,-32.92 621.67,-29.92"/>
<polygon fill="#63b8ff" stroke="#63b8ff" points="562.55,-112.62 555.88,-120.85 566.23,-118.57 562.55,-112.62"/>
</a>
</g>
</g>
</g>
</svg>
