<?xml version="1.0" encoding="UTF-8" standalone="no"?>
<!DOCTYPE svg PUBLIC "-//W3C//DTD SVG 1.1//EN"
 "http://www.w3.org/Graphics/SVG/1.1/DTD/svg11.dtd">
<!-- Generated by graphviz version 15.1.0 (20260618.0150)
 -->
<!-- Title: SystemEx.Numeric.IHalf&lt; T &gt; Pages: 1 -->
<svg width="149pt" height="188pt"
 viewBox="0.00 0.00 149.00 188.00" xmlns="http://www.w3.org/2000/svg" xmlns:xlink="http://www.w3.org/1999/xlink">
<g id="graph0" class="graph" transform="scale(1 1) rotate(0) translate(4 184)">
<title>SystemEx.Numeric.IHalf&lt; T &gt;</title>
<!-- Node1 -->
<g id="Node000001" class="node">
<title>Node1</title>
<g id="a_Node000001"><a xlink:title=" ">
<polygon fill="#999999" stroke="none" points="140.75,-180 0,-180 0,0 140.75,0 140.75,-180"/>
<text xml:space="preserve" text-anchor="start" x="4" y="-166.25" font-family="Helvetica,sans-Serif" font-size="10.00">SystemEx.Numeric.IHalf&lt; T &gt;</text>
<text xml:space="preserve" text-anchor="start" x="19.5" y="-150.25" font-family="Helvetica,sans-Serif" font-size="10.00">+</text>
<text xml:space="preserve" text-anchor="start" x="45" y="-150.25" font-family="Helvetica,sans-Serif" font-size="10.00">SignBits</text>
<text xml:space="preserve" text-anchor="start" x="19.5" y="-134.25" font-family="Helvetica,sans-Serif" font-size="10.00">+</text>
<text xml:space="preserve" text-anchor="start" x="45" y="-134.25" font-family="Helvetica,sans-Serif" font-size="10.00">ExponentBits</text>
<text xml:space="preserve" text-anchor="start" x="19.5" y="-118.25" font-family="Helvetica,sans-Serif" font-size="10.00">+</text>
<text xml:space="preserve" text-anchor="start" x="45" y="-118.25" font-family="Helvetica,sans-Serif" font-size="10.00">MantissaBits</text>
<text xml:space="preserve" text-anchor="start" x="19.5" y="-102.25" font-family="Helvetica,sans-Serif" font-size="10.00">+</text>
<text xml:space="preserve" text-anchor="start" x="45" y="-102.25" font-family="Helvetica,sans-Serif" font-size="10.00">ExponentBias</text>
<text xml:space="preserve" text-anchor="start" x="19.5" y="-86.25" font-family="Helvetica,sans-Serif" font-size="10.00">+</text>
<text xml:space="preserve" text-anchor="start" x="45" y="-86.25" font-family="Helvetica,sans-Serif" font-size="10.00">TotalBits</text>
<text xml:space="preserve" text-anchor="start" x="19.5" y="-70.25" font-family="Helvetica,sans-Serif" font-size="10.00">+</text>
<text xml:space="preserve" text-anchor="start" x="45" y="-70.25" font-family="Helvetica,sans-Serif" font-size="10.00">Sign</text>
<text xml:space="preserve" text-anchor="start" x="19.5" y="-54.25" font-family="Helvetica,sans-Serif" font-size="10.00">+</text>
<text xml:space="preserve" text-anchor="start" x="45" y="-54.25" font-family="Helvetica,sans-Serif" font-size="10.00">Exponent</text>
<text xml:space="preserve" text-anchor="start" x="19.5" y="-38.25" font-family="Helvetica,sans-Serif" font-size="10.00">+</text>
<text xml:space="preserve" text-anchor="start" x="45" y="-38.25" font-family="Helvetica,sans-Serif" font-size="10.00">Mantissa</text>
<text xml:space="preserve" text-anchor="start" x="19.5" y="-22.25" font-family="Helvetica,sans-Serif" font-size="10.00">+</text>
<text xml:space="preserve" text-anchor="start" x="45" y="-22.25" font-family="Helvetica,sans-Serif" font-size="10.00">AsUShort()</text>
<text xml:space="preserve" text-anchor="start" x="19.5" y="-6.25" font-family="Helvetica,sans-Serif" font-size="10.00">+</text>
<text xml:space="preserve" text-anchor="start" x="45" y="-6.25" font-family="Helvetica,sans-Serif" font-size="10.00">ToBytes()</text>
<polygon fill="#666666" stroke="#666666" points="0,-162 0,-162 140.75,-162 140.75,-162 0,-162"/>
<polygon fill="#666666" stroke="#666666" points="0,-34 0,-34 43,-34 43,-34 0,-34"/>
<polygon fill="#666666" stroke="#666666" points="43,-34 43,-34 140.75,-34 140.75,-34 43,-34"/>
<polygon fill="none" stroke="#666666" points="0,0 0,-180 140.75,-180 140.75,0 0,0"/>
</a>
</g>
</g>
</g>
</svg>
