<?xml version="1.0" encoding="UTF-8" standalone="no"?>
<!DOCTYPE svg PUBLIC "-//W3C//DTD SVG 1.1//EN"
 "http://www.w3.org/Graphics/SVG/1.1/DTD/svg11.dtd">
<!-- Generated by graphviz version 15.1.0 (20260618.0150)
 -->
<!-- Title: SystemEx.Drawing.ColorXYZ.Equals Pages: 1 -->
<svg width="529pt" height="62pt"
 viewBox="0.00 0.00 529.00 62.00" xmlns="http://www.w3.org/2000/svg" xmlns:xlink="http://www.w3.org/1999/xlink">
<g id="graph0" class="graph" transform="scale(1 1) rotate(0) translate(4 58)">
<title>SystemEx.Drawing.ColorXYZ.Equals</title>
<!-- Node1 -->
<g id="Node000001" class="node">
<title>Node1</title>
<g id="a_Node000001"><a xlink:title="Determines whether this instance is equal to another object.">
<polygon fill="#999999" stroke="#666666" points="149.5,-54 0,-54 0,-22 149.5,-22 149.5,-54"/>
<text xml:space="preserve" text-anchor="start" x="8" y="-40.5" font-family="Helvetica,sans-Serif" font-size="10.00">SystemEx.Drawing.ColorXYZ.</text>
<text xml:space="preserve" text-anchor="middle" x="74.75" y="-28.5" font-family="Helvetica,sans-Serif" font-size="10.00">Equals</text>
</a>
</g>
</g>
<!-- Node2 -->
<g id="Node000002" class="node">
<title>Node2</title>
<g id="a_Node000002"><a xlink:href="../../df/d5f/a00762.html#ga39a3ae0dd212c74b312a22675f4412ec" target="_top" xlink:title="Initializes a new XYZ color with the specified component values.">
<polygon fill="white" stroke="#666666" points="520.5,-54 371,-54 371,-22 520.5,-22 520.5,-54"/>
<text xml:space="preserve" text-anchor="start" x="379" y="-40.5" font-family="Helvetica,sans-Serif" font-size="10.00">SystemEx.Drawing.ColorXYZ.</text>
<text xml:space="preserve" text-anchor="middle" x="445.75" y="-28.5" font-family="Helvetica,sans-Serif" font-size="10.00">ColorXYZ</text>
</a>
</g>
</g>
<!-- Node1&#45;&gt;Node2 -->
<g id="edge1_Node000001_Node000002" class="edge">
<title>Node1&#45;&gt;Node2</title>
<g id="a_edge1_Node000001_Node000002"><a xlink:title=" ">
<path fill="none" stroke="#63b8ff" d="M149.83,-40.3C161.76,-40.59 173.97,-40.84 185.5,-41 251.94,-41.91 268.56,-41.91 335,-41 342.93,-40.89 351.18,-40.74 359.43,-40.56"/>
<polygon fill="#63b8ff" stroke="#63b8ff" points="359.24,-44.07 369.15,-40.34 359.07,-37.07 359.24,-44.07"/>
</a>
</g>
</g>
<!-- Node3 -->
<g id="Node000003" class="node">
<title>Node3</title>
<g id="a_Node000003"><a xlink:href="../../df/d5f/a00762.html#ga4794f72a4181255235e2eca15db77635" target="_top" xlink:title="Determines whether this instance is equal to another XYZ color.">
<polygon fill="white" stroke="#666666" points="335,-32 185.5,-32 185.5,0 335,0 335,-32"/>
<text xml:space="preserve" text-anchor="start" x="193.5" y="-18.5" font-family="Helvetica,sans-Serif" font-size="10.00">SystemEx.Drawing.ColorXYZ.</text>
<text xml:space="preserve" text-anchor="middle" x="260.25" y="-6.5" font-family="Helvetica,sans-Serif" font-size="10.00">Equals</text>
</a>
</g>
</g>
<!-- Node1&#45;&gt;Node3 -->
<g id="edge2_Node000001_Node000003" class="edge">
<title>Node1&#45;&gt;Node3</title>
<g id="a_edge2_Node000001_Node000003"><a xlink:title=" ">
<path fill="none" stroke="#63b8ff" d="M149.86,-29.12C157.77,-28.17 165.86,-27.2 173.89,-26.23"/>
<polygon fill="#63b8ff" stroke="#63b8ff" points="174.15,-29.73 183.66,-25.06 173.32,-22.78 174.15,-29.73"/>
</a>
</g>
</g>
<!-- Node3&#45;&gt;Node2 -->
<g id="edge3_Node000003_Node000002" class="edge">
<title>Node3&#45;&gt;Node2</title>
<g id="a_edge3_Node000003_Node000002"><a xlink:title=" ">
<path fill="none" stroke="#63b8ff" d="M335.36,-24.88C343.27,-25.83 351.36,-26.8 359.39,-27.77"/>
<polygon fill="#63b8ff" stroke="#63b8ff" points="358.82,-31.22 369.16,-28.94 359.65,-24.27 358.82,-31.22"/>
</a>
</g>
</g>
</g>
</svg>
