<?xml version="1.0" encoding="UTF-8" standalone="no"?>
<!DOCTYPE svg PUBLIC "-//W3C//DTD SVG 1.1//EN"
 "http://www.w3.org/Graphics/SVG/1.1/DTD/svg11.dtd">
<!-- Generated by graphviz version 14.1.4 (20260321.0153)
 -->
<!-- Title: SystemEx.Threading.UniqueEpoch Pages: 1 -->
<svg width="141pt" height="188pt"
 viewBox="0.00 0.00 141.00 188.00" xmlns="http://www.w3.org/2000/svg" xmlns:xlink="http://www.w3.org/1999/xlink">
<g id="graph0" class="graph" transform="scale(1 1) rotate(0) translate(4 184)">
<title>SystemEx.Threading.UniqueEpoch</title>
<!-- Node1 -->
<g id="Node000001" class="node">
<title>Node1</title>
<g id="a_Node000001"><a xlink:title="Provides an RAII&#45;style scoped reader epoch for RCU&#45;based objects. The epoch is incremented when the i...">
<polygon fill="#999999" stroke="none" points="133.25,-92 0,-92 0,0 133.25,0 133.25,-92"/>
<text xml:space="preserve" text-anchor="start" x="4" y="-78.25" font-family="Helvetica,sans-Serif" font-size="10.00">SystemEx.Threading.Unique</text>
<text xml:space="preserve" text-anchor="start" x="52.75" y="-66.25" font-family="Helvetica,sans-Serif" font-size="10.00">Epoch</text>
<text xml:space="preserve" text-anchor="start" x="65.12" y="-50.25" font-family="Helvetica,sans-Serif" font-size="10.00"> </text>
<text xml:space="preserve" text-anchor="start" x="6.94" y="-34.25" font-family="Helvetica,sans-Serif" font-size="10.00">+</text>
<text xml:space="preserve" text-anchor="start" x="19.88" y="-34.25" font-family="Helvetica,sans-Serif" font-size="10.00">void Dispose()</text>
<text xml:space="preserve" text-anchor="start" x="6.94" y="-18.25" font-family="Helvetica,sans-Serif" font-size="10.00">+</text>
<text xml:space="preserve" text-anchor="start" x="19.88" y="-18.25" font-family="Helvetica,sans-Serif" font-size="10.00">UniqueEpoch(ref Epoch</text>
<text xml:space="preserve" text-anchor="start" x="19.88" y="-6.25" font-family="Helvetica,sans-Serif" font-size="10.00"> epoch)</text>
<polygon fill="#666666" stroke="#666666" points="0,-62 0,-62 133.25,-62 133.25,-62 0,-62"/>
<polygon fill="#666666" stroke="#666666" points="0,-46 0,-46 133.25,-46 133.25,-46 0,-46"/>
<polygon fill="none" stroke="#666666" points="0,0 0,-92 133.25,-92 133.25,0 0,0"/>
</a>
</g>
</g>
<!-- Node2 -->
<g id="Node000002" class="node">
<title>Node2</title>
<g id="a_Node000002"><a xlink:title=" ">
<polygon fill="white" stroke="none" points="96.5,-180 36.75,-180 36.75,-128 96.5,-128 96.5,-180"/>
<text xml:space="preserve" text-anchor="start" x="40.75" y="-166.25" font-family="Helvetica,sans-Serif" font-size="10.00">IDisposable</text>
<text xml:space="preserve" text-anchor="start" x="65.12" y="-150.25" font-family="Helvetica,sans-Serif" font-size="10.00"> </text>
<text xml:space="preserve" text-anchor="start" x="65.12" y="-134.25" font-family="Helvetica,sans-Serif" font-size="10.00"> </text>
<polygon fill="#bfbfbf" stroke="#bfbfbf" points="36.75,-162 36.75,-162 96.5,-162 96.5,-162 36.75,-162"/>
<polygon fill="#bfbfbf" stroke="#bfbfbf" points="36.75,-146 36.75,-146 96.5,-146 96.5,-146 36.75,-146"/>
<polygon fill="none" stroke="#bfbfbf" points="36.75,-128 36.75,-180 96.5,-180 96.5,-128 36.75,-128"/>
</a>
</g>
</g>
<!-- Node2&#45;&gt;Node1 -->
<g id="edge1_Node000001_Node000002" class="edge">
<title>Node2&#45;&gt;Node1</title>
<g id="a_edge1_Node000001_Node000002"><a xlink:title=" ">
<path fill="none" stroke="#63b8ff" d="M66.62,-116.81C66.62,-108.71 66.62,-100.03 66.62,-91.64"/>
<polygon fill="none" stroke="#63b8ff" points="63.13,-116.63 66.63,-126.63 70.13,-116.63 63.13,-116.63"/>
</a>
</g>
</g>
</g>
</svg>
