<?xml version="1.0" encoding="UTF-8" standalone="no"?>
<!DOCTYPE svg PUBLIC "-//W3C//DTD SVG 1.1//EN"
 "http://www.w3.org/Graphics/SVG/1.1/DTD/svg11.dtd">
<!-- Generated by graphviz version 14.1.4 (20260321.0153)
 -->
<!-- Title: SystemEx.Numeric.Vec3f.LenghtSqrt Pages: 1 -->
<svg width="792pt" height="182pt"
 viewBox="0.00 0.00 792.00 182.00" xmlns="http://www.w3.org/2000/svg" xmlns:xlink="http://www.w3.org/1999/xlink">
<g id="graph0" class="graph" transform="scale(1 1) rotate(0) translate(4 178)">
<title>SystemEx.Numeric.Vec3f.LenghtSqrt</title>
<!-- Node1 -->
<g id="Node000001" class="node">
<title>Node1</title>
<g id="a_Node000001"><a xlink:title="Computes the Euclidean length of the vector.">
<polygon fill="#999999" stroke="#666666" points="784,-117 604.5,-117 604.5,-97 784,-97 784,-117"/>
<text xml:space="preserve" text-anchor="middle" x="694.25" y="-103.5" font-family="Helvetica,sans-Serif" font-size="10.00">SystemEx.Numeric.Vec3f.LenghtSqrt</text>
</a>
</g>
</g>
<!-- Node2 -->
<g id="Node000002" class="node">
<title>Node2</title>
<g id="a_Node000002"><a xlink:href="../../d4/d1c/a00903_gabe7e311f599bdee448f18d90f9541cb0.html#gabe7e311f599bdee448f18d90f9541cb0" target="_top" xlink:title="Computes the quaternion exponential.">
<polygon fill="white" stroke="#666666" points="566.62,-174 393.88,-174 393.88,-154 566.62,-154 566.62,-174"/>
<text xml:space="preserve" text-anchor="middle" x="480.25" y="-160.5" font-family="Helvetica,sans-Serif" font-size="10.00">SystemEx.Numeric.Quatf.Exponent</text>
</a>
</g>
</g>
<!-- Node1&#45;&gt;Node2 -->
<g id="edge1_Node000001_Node000002" class="edge">
<title>Node1&#45;&gt;Node2</title>
<g id="a_edge1_Node000001_Node000002"><a xlink:title=" ">
<path fill="none" stroke="#63b8ff" d="M650.54,-120.95C626.57,-128.54 596.02,-137.83 568.5,-145 556.95,-148.01 544.45,-150.93 532.63,-153.54"/>
<polygon fill="#63b8ff" stroke="#63b8ff" points="651.5,-124.32 659.96,-117.94 649.37,-117.65 651.5,-124.32"/>
</a>
</g>
</g>
<!-- Node3 -->
<g id="Node000003" class="node">
<title>Node3</title>
<g id="a_Node000003"><a xlink:href="../../d4/d1c/a00903_ga94ac3f5a7f985a01d0b6555b7e2a4d4c.html#ga94ac3f5a7f985a01d0b6555b7e2a4d4c" target="_top" xlink:title="Creates a quaternion from an axis‑angle representation.">
<polygon fill="white" stroke="#666666" points="567,-136 393.5,-136 393.5,-116 567,-116 567,-136"/>
<text xml:space="preserve" text-anchor="middle" x="480.25" y="-122.5" font-family="Helvetica,sans-Serif" font-size="10.00">SystemEx.Numeric.Quatf.FromAxis</text>
</a>
</g>
</g>
<!-- Node1&#45;&gt;Node3 -->
<g id="edge2_Node000001_Node000003" class="edge">
<title>Node1&#45;&gt;Node3</title>
<g id="a_edge2_Node000001_Node000003"><a xlink:title=" ">
<path fill="none" stroke="#63b8ff" d="M593.01,-115.98C584.41,-116.75 575.77,-117.53 567.29,-118.29"/>
<polygon fill="#63b8ff" stroke="#63b8ff" points="593.11,-119.49 602.76,-115.11 592.48,-112.52 593.11,-119.49"/>
</a>
</g>
</g>
<!-- Node5 -->
<g id="Node000005" class="node">
<title>Node5</title>
<g id="a_Node000005"><a xlink:href="../../d4/d1c/a00903_gae6fe021ae838057ea1b8e6302fb79c59.html#gae6fe021ae838057ea1b8e6302fb79c59" target="_top" xlink:title="Computes the quaternion logarithm.">
<polygon fill="white" stroke="#666666" points="567.38,-98 393.12,-98 393.12,-78 567.38,-78 567.38,-98"/>
<text xml:space="preserve" text-anchor="middle" x="480.25" y="-84.5" font-family="Helvetica,sans-Serif" font-size="10.00">SystemEx.Numeric.Quatf.Logarithm</text>
</a>
</g>
</g>
<!-- Node1&#45;&gt;Node5 -->
<g id="edge4_Node000001_Node000005" class="edge">
<title>Node1&#45;&gt;Node5</title>
<g id="a_edge4_Node000001_Node000005"><a xlink:title=" ">
<path fill="none" stroke="#63b8ff" d="M592.83,-98C584.41,-97.25 575.94,-96.49 567.63,-95.74"/>
<polygon fill="#63b8ff" stroke="#63b8ff" points="592.48,-101.48 602.76,-98.89 593.11,-94.51 592.48,-101.48"/>
</a>
</g>
</g>
<!-- Node6 -->
<g id="Node000006" class="node">
<title>Node6</title>
<g id="a_Node000006"><a xlink:href="../../d4/d1c/a00903_gaf9d694d6764d8e37107d91a395de8571.html#gaf9d694d6764d8e37107d91a395de8571" target="_top" xlink:title="Normalizes the vector.">
<polygon fill="white" stroke="#666666" points="568.5,-60 392,-60 392,-40 568.5,-40 568.5,-60"/>
<text xml:space="preserve" text-anchor="middle" x="480.25" y="-46.5" font-family="Helvetica,sans-Serif" font-size="10.00">SystemEx.Numeric.Vec3f.Normalize</text>
</a>
</g>
</g>
<!-- Node1&#45;&gt;Node6 -->
<g id="edge5_Node000001_Node000006" class="edge">
<title>Node1&#45;&gt;Node6</title>
<g id="a_edge5_Node000001_Node000006"><a xlink:title=" ">
<path fill="none" stroke="#63b8ff" d="M650.54,-93.05C626.57,-85.46 596.02,-76.17 568.5,-69 556.95,-65.99 544.45,-63.07 532.63,-60.46"/>
<polygon fill="#63b8ff" stroke="#63b8ff" points="649.37,-96.35 659.96,-96.06 651.5,-89.68 649.37,-96.35"/>
</a>
</g>
</g>
<!-- Node4 -->
<g id="Node000004" class="node">
<title>Node4</title>
<g id="a_Node000004"><a xlink:href="../../d4/d1c/a00903_ga101e0c01d57daec21beb247a1360ac06.html#ga101e0c01d57daec21beb247a1360ac06" target="_top" xlink:title="Initializes a quaternion from an axis‑angle representation.">
<polygon fill="white" stroke="#666666" points="344.75,-136 189.25,-136 189.25,-116 344.75,-116 344.75,-136"/>
<text xml:space="preserve" text-anchor="middle" x="267" y="-122.5" font-family="Helvetica,sans-Serif" font-size="10.00">SystemEx.Numeric.Quatf.Quatf</text>
</a>
</g>
</g>
<!-- Node3&#45;&gt;Node4 -->
<g id="edge3_Node000003_Node000004" class="edge">
<title>Node3&#45;&gt;Node4</title>
<g id="a_edge3_Node000003_Node000004"><a xlink:title=" ">
<path fill="none" stroke="#63b8ff" d="M381.79,-126C369.5,-126 357.05,-126 345.13,-126"/>
<polygon fill="#63b8ff" stroke="#63b8ff" points="381.51,-129.5 391.51,-126 381.51,-122.5 381.51,-129.5"/>
</a>
</g>
</g>
<!-- Node7 -->
<g id="Node000007" class="node">
<title>Node7</title>
<g id="a_Node000007"><a xlink:href="../../d4/d1c/a00903_gae2a31e704c568c9f14f0b1755840e4e3.html#gae2a31e704c568c9f14f0b1755840e4e3" target="_top" xlink:title="Computes the normalized rotation axis of this quaternion.">
<polygon fill="white" stroke="#666666" points="340.62,-82 193.38,-82 193.38,-50 340.62,-50 340.62,-82"/>
<text xml:space="preserve" text-anchor="start" x="201.38" y="-68.5" font-family="Helvetica,sans-Serif" font-size="10.00">SystemEx.Numeric.Quatf.Get</text>
<text xml:space="preserve" text-anchor="middle" x="267" y="-56.5" font-family="Helvetica,sans-Serif" font-size="10.00">RotationAxis</text>
</a>
</g>
</g>
<!-- Node6&#45;&gt;Node7 -->
<g id="edge6_Node000006_Node000007" class="edge">
<title>Node6&#45;&gt;Node7</title>
<g id="a_edge6_Node000006_Node000007"><a xlink:title=" ">
<path fill="none" stroke="#63b8ff" d="M380.63,-57.47C367.26,-58.48 353.75,-59.51 340.95,-60.48"/>
<polygon fill="#63b8ff" stroke="#63b8ff" points="380.59,-60.98 390.29,-56.74 380.06,-54 380.59,-60.98"/>
</a>
</g>
</g>
<!-- Node9 -->
<g id="Node000009" class="node">
<title>Node9</title>
<g id="a_Node000009"><a xlink:href="../../d4/d1c/a00903_ga9d75baefaa8fec4cc2dcf8aebb898c9c.html#ga9d75baefaa8fec4cc2dcf8aebb898c9c" target="_top" xlink:title="Interpolates and normalizes the result.">
<polygon fill="white" stroke="#666666" points="356,-32 178,-32 178,0 356,0 356,-32"/>
<text xml:space="preserve" text-anchor="start" x="186" y="-18.5" font-family="Helvetica,sans-Serif" font-size="10.00">SystemEx.Numeric.Vec3f.Interpolate</text>
<text xml:space="preserve" text-anchor="middle" x="267" y="-6.5" font-family="Helvetica,sans-Serif" font-size="10.00">Normal</text>
</a>
</g>
</g>
<!-- Node6&#45;&gt;Node9 -->
<g id="edge8_Node000006_Node000009" class="edge">
<title>Node6&#45;&gt;Node9</title>
<g id="a_edge8_Node000006_Node000009"><a xlink:title=" ">
<path fill="none" stroke="#63b8ff" d="M403.22,-37.76C387.97,-35.31 371.83,-32.71 356.21,-30.2"/>
<polygon fill="#63b8ff" stroke="#63b8ff" points="402.22,-41.15 412.65,-39.28 403.33,-34.24 402.22,-41.15"/>
</a>
</g>
</g>
<!-- Node8 -->
<g id="Node000008" class="node">
<title>Node8</title>
<g id="a_Node000008"><a xlink:href="../../d4/d1c/a00903_gabe4bebaba87be931ae3aba7e6c3fa897.html#gabe4bebaba87be931ae3aba7e6c3fa897" target="_top" xlink:title="Converts a quaternion into an axis‑angle representation.">
<polygon fill="white" stroke="#666666" points="142,-82 0,-82 0,-50 142,-50 142,-82"/>
<text xml:space="preserve" text-anchor="start" x="8" y="-68.5" font-family="Helvetica,sans-Serif" font-size="10.00">SystemEx.Numeric.Quatf.To</text>
<text xml:space="preserve" text-anchor="middle" x="71" y="-56.5" font-family="Helvetica,sans-Serif" font-size="10.00">AxisAngle</text>
</a>
</g>
</g>
<!-- Node7&#45;&gt;Node8 -->
<g id="edge7_Node000007_Node000008" class="edge">
<title>Node7&#45;&gt;Node8</title>
<g id="a_edge7_Node000007_Node000008"><a xlink:title=" ">
<path fill="none" stroke="#63b8ff" d="M181.56,-66C168.51,-66 155.14,-66 142.43,-66"/>
<polygon fill="#63b8ff" stroke="#63b8ff" points="181.42,-69.5 191.42,-66 181.42,-62.5 181.42,-69.5"/>
</a>
</g>
</g>
</g>
</svg>
