<?xml version="1.0" encoding="UTF-8" standalone="no"?>
<!DOCTYPE svg PUBLIC "-//W3C//DTD SVG 1.1//EN"
 "http://www.w3.org/Graphics/SVG/1.1/DTD/svg11.dtd">
<!-- Generated by graphviz version 14.1.4 (20260321.0153)
 -->
<!-- Title: SystemEx.Numeric.FloatE4M3.Signum Pages: 1 -->
<svg width="495pt" height="104pt"
 viewBox="0.00 0.00 495.00 104.00" xmlns="http://www.w3.org/2000/svg" xmlns:xlink="http://www.w3.org/1999/xlink">
<g id="graph0" class="graph" transform="scale(1 1) rotate(0) translate(4 100.42)">
<title>SystemEx.Numeric.FloatE4M3.Signum</title>
<!-- Node1 -->
<g id="Node000001" class="node">
<title>Node1</title>
<g id="a_Node000001"><a xlink:title="Returns −1, 0, or +1 depending on the sign of the value.">
<polygon fill="#999999" stroke="#666666" points="138.25,-82 0,-82 0,-50 138.25,-50 138.25,-82"/>
<text xml:space="preserve" text-anchor="start" x="8" y="-68.5" font-family="Helvetica,sans-Serif" font-size="10.00">SystemEx.Numeric.FloatE4</text>
<text xml:space="preserve" text-anchor="middle" x="69.12" y="-56.5" font-family="Helvetica,sans-Serif" font-size="10.00">M3.Signum</text>
</a>
</g>
</g>
<!-- Node2 -->
<g id="Node000002" class="node">
<title>Node2</title>
<g id="a_Node000002"><a xlink:href="../../d2/d6f/a01957_ad97fe2cc668a6096fbd7069a06040a5b.html#ad97fe2cc668a6096fbd7069a06040a5b" target="_top" xlink:title="Initializes a new FP8 value set to zero.">
<polygon fill="white" stroke="#666666" points="486.75,-82 348.5,-82 348.5,-50 486.75,-50 486.75,-82"/>
<text xml:space="preserve" text-anchor="start" x="356.5" y="-68.5" font-family="Helvetica,sans-Serif" font-size="10.00">SystemEx.Numeric.FloatE4</text>
<text xml:space="preserve" text-anchor="middle" x="417.62" y="-56.5" font-family="Helvetica,sans-Serif" font-size="10.00">M3.FloatE4M3</text>
</a>
</g>
</g>
<!-- Node1&#45;&gt;Node2 -->
<g id="edge1_Node000001_Node000002" class="edge">
<title>Node1&#45;&gt;Node2</title>
<g id="a_edge1_Node000001_Node000002"><a xlink:title=" ">
<path fill="none" stroke="#63b8ff" d="M128.06,-82.46C142.99,-86 159.11,-89.21 174.25,-91 235.27,-98.22 251.48,-98.22 312.5,-91 323.97,-89.64 336.01,-87.47 347.66,-84.96"/>
<polygon fill="#63b8ff" stroke="#63b8ff" points="348.23,-88.42 357.21,-82.8 346.69,-81.59 348.23,-88.42"/>
</a>
</g>
</g>
<!-- Node3 -->
<g id="Node000003" class="node">
<title>Node3</title>
<g id="a_Node000003"><a xlink:href="../../d2/d6f/a01957_a05706c61a6ccd3492dcbb7554af0d4d2.html#a05706c61a6ccd3492dcbb7554af0d4d2" target="_top" xlink:title="Determines whether the value is a NaN.">
<polygon fill="white" stroke="#666666" points="312.5,-82 174.25,-82 174.25,-50 312.5,-50 312.5,-82"/>
<text xml:space="preserve" text-anchor="start" x="182.25" y="-68.5" font-family="Helvetica,sans-Serif" font-size="10.00">SystemEx.Numeric.FloatE4</text>
<text xml:space="preserve" text-anchor="middle" x="243.38" y="-56.5" font-family="Helvetica,sans-Serif" font-size="10.00">M3.IsNaN</text>
</a>
</g>
</g>
<!-- Node1&#45;&gt;Node3 -->
<g id="edge2_Node000001_Node000003" class="edge">
<title>Node1&#45;&gt;Node3</title>
<g id="a_edge2_Node000001_Node000003"><a xlink:title=" ">
<path fill="none" stroke="#63b8ff" d="M138.7,-66C146.45,-66 154.4,-66 162.29,-66"/>
<polygon fill="#63b8ff" stroke="#63b8ff" points="162.24,-69.5 172.24,-66 162.24,-62.5 162.24,-69.5"/>
</a>
</g>
</g>
<!-- Node4 -->
<g id="Node000004" class="node">
<title>Node4</title>
<g id="a_Node000004"><a xlink:href="../../d2/d6f/a01957_af7dd7fa3a27aed5ec57ee60e822fd8ac.html#af7dd7fa3a27aed5ec57ee60e822fd8ac" target="_top" xlink:title="Determines whether the value is zero (positive or negative).">
<polygon fill="white" stroke="#666666" points="312.5,-32 174.25,-32 174.25,0 312.5,0 312.5,-32"/>
<text xml:space="preserve" text-anchor="start" x="182.25" y="-18.5" font-family="Helvetica,sans-Serif" font-size="10.00">SystemEx.Numeric.FloatE4</text>
<text xml:space="preserve" text-anchor="middle" x="243.38" y="-6.5" font-family="Helvetica,sans-Serif" font-size="10.00">M3.IsZero</text>
</a>
</g>
</g>
<!-- Node1&#45;&gt;Node4 -->
<g id="edge4_Node000001_Node000004" class="edge">
<title>Node1&#45;&gt;Node4</title>
<g id="a_edge4_Node000001_Node000004"><a xlink:title=" ">
<path fill="none" stroke="#63b8ff" d="M126.53,-49.63C141.91,-45.16 158.74,-40.28 174.68,-35.65"/>
<polygon fill="#63b8ff" stroke="#63b8ff" points="175.47,-39.07 184.1,-32.92 173.52,-32.34 175.47,-39.07"/>
</a>
</g>
</g>
<!-- Node3&#45;&gt;Node2 -->
<g id="edge3_Node000003_Node000002" class="edge">
<title>Node3&#45;&gt;Node2</title>
<g id="a_edge3_Node000003_Node000002"><a xlink:title=" ">
<path fill="none" stroke="#63b8ff" d="M312.95,-66C320.7,-66 328.65,-66 336.54,-66"/>
<polygon fill="#63b8ff" stroke="#63b8ff" points="336.49,-69.5 346.49,-66 336.49,-62.5 336.49,-69.5"/>
</a>
</g>
</g>
<!-- Node4&#45;&gt;Node2 -->
<g id="edge5_Node000004_Node000002" class="edge">
<title>Node4&#45;&gt;Node2</title>
<g id="a_edge5_Node000004_Node000002"><a xlink:title=" ">
<path fill="none" stroke="#63b8ff" d="M300.78,-32.37C316.16,-36.84 332.99,-41.72 348.93,-46.35"/>
<polygon fill="#63b8ff" stroke="#63b8ff" points="347.77,-49.66 358.35,-49.08 349.72,-42.93 347.77,-49.66"/>
</a>
</g>
</g>
</g>
</svg>
