<?xml version="1.0" encoding="UTF-8" standalone="no"?>
<!DOCTYPE svg PUBLIC "-//W3C//DTD SVG 1.1//EN"
 "http://www.w3.org/Graphics/SVG/1.1/DTD/svg11.dtd">
<!-- Generated by graphviz version 15.1.0 (20260618.0150)
 -->
<!-- Title: SystemEx.Collections.Generic.Vector&#45;1&#45;g.Vector Pages: 1 -->
<!--zoomable 808 -->

<svg id="main" version="1.1" xmlns="http://www.w3.org/2000/svg" xmlns:xlink="http://www.w3.org/1999/xlink" xml:space="preserve" onload="init(evt)">

<style type="text/css"><![CDATA[
.node, .edge {opacity: 0.7;}
.node.selected, .edge.selected {opacity: 1;}
.edge:hover path { stroke: red; }
.edge:hover polygon { stroke: red; fill: red; }
]]></style>

<defs>
  <circle id="rim" cx="0" cy="0" r="7"/>
  <circle id="rim2" cx="0" cy="0" r="3.5"/>
  <g id="zoomPlus">
    <use xlink:href="#rim" fill="#404040"><set attributeName="fill" to="#808080" begin="zoomplus.mouseover" end="zoomplus.mouseout"/></use>
    <path d="M-4,0h8M0,-4v8" fill="none" stroke="white" stroke-width="1.5" pointer-events="none"/>
  </g>
  <g id="zoomMin">
    <use xlink:href="#rim" fill="#404040"><set attributeName="fill" to="#808080" begin="zoomminus.mouseover" end="zoomminus.mouseout"/></use>
    <path d="M-4,0h8" fill="none" stroke="white" stroke-width="1.5" pointer-events="none"/>
  </g>
  <g id="arrowUp" transform="translate(30 24)">
    <use xlink:href="#rim"/>
    <path pointer-events="none" fill="none" stroke="white" stroke-width="1.5" d="M0,-3.0v7 M-2.5,-0.5L0,-3.0L2.5,-0.5"/>
  </g>
  <g id="arrowRight" transform="rotate(90) translate(36 -43)">
    <use xlink:href="#rim"/>
    <path pointer-events="none" fill="none" stroke="white" stroke-width="1.5" d="M0,-3.0v7 M-2.5,-0.5L0,-3.0L2.5,-0.5"/>
  </g>
  <g id="arrowDown" transform="rotate(180) translate(-30 -48)">
    <use xlink:href="#rim"/>
    <path pointer-events="none" fill="none" stroke="white" stroke-width="1.5" d="M0,-3.0v7 M-2.5,-0.5L0,-3.0L2.5,-0.5"/>
  </g>
  <g id="arrowLeft" transform="rotate(270) translate(-36 17)">
    <use xlink:href="#rim"/>
    <path pointer-events="none" fill="none" stroke="white" stroke-width="1.5" d="M0,-3.0v7 M-2.5,-0.5L0,-3.0L2.5,-0.5"/>
  </g>
  <g id="resetDef">
    <use xlink:href="#rim2" fill="#404040"><set attributeName="fill" to="#808080" begin="reset.mouseover" end="reset.mouseout"/></use>
  </g>
</defs>
<script type="application/ecmascript">
var viewWidth = 354;
var viewHeight = 808;
var sectionId = 'dynsection-28';
</script>
<script type="application/ecmascript" xlink:href="../../svg.min.js"/>
<svg id="graph" class="graph">
<g id="viewport">
<title>SystemEx.Collections.Generic.Vector&#45;1&#45;g.Vector</title>
<!-- Node1 -->
<g id="Node000001" class="node">
<title>Node1</title>
<g id="a_Node000001"><a xlink:title="Creates a new Vector with a specified initial capacity. The vector starts empty (Count = 0) and grows...">
<polygon fill="#999999" stroke="#666666" points="345.5,-425 192.25,-425 192.25,-393 345.5,-393 345.5,-425"/>
<text xml:space="preserve" text-anchor="start" x="200.25" y="-411.5" font-family="Helvetica,sans-Serif" font-size="10.00">SystemEx.Collections.Generic.</text>
<text xml:space="preserve" text-anchor="middle" x="268.88" y="-399.5" font-family="Helvetica,sans-Serif" font-size="10.00">Vector&#45;1&#45;g.Vector</text>
</a>
</g>
</g>
<!-- Node1&#45;&gt;Node1 -->
<g id="edge17_Node000001_Node000001" class="edge">
<title>Node1&#45;&gt;Node1</title>
<g id="a_edge17_Node000001_Node000001"><a xlink:title=" ">
<path fill="none" stroke="#63b8ff" d="M300.66,-436.71C295.36,-440.48 284.77,-443 268.88,-443 239.82,-443 228.46,-434.58 234.82,-425.44"/>
<polygon fill="#63b8ff" stroke="#63b8ff" points="304.09,-437.42 302.63,-426.93 297.23,-436.04 304.09,-437.42"/>
</a>
</g>
</g>
<!-- Node2 -->
<g id="Node000002" class="node">
<title>Node2</title>
<g id="a_Node000002"><a xlink:href="../../d4/de6/struct_system_ex_1_1_collections_1_1_generic_1_1_vector-1-g.html#a499a3f573856cce8812cbe04b55be091" target="_top" xlink:title="Creates a Find&lt;T, TContainer&gt; wrapper for this vector, providing direct access to element lookup util...">
<polygon fill="white" stroke="#666666" points="154.75,-800 1.5,-800 1.5,-768 154.75,-768 154.75,-800"/>
<text xml:space="preserve" text-anchor="start" x="9.5" y="-786.5" font-family="Helvetica,sans-Serif" font-size="10.00">SystemEx.Collections.Generic.</text>
<text xml:space="preserve" text-anchor="middle" x="78.12" y="-774.5" font-family="Helvetica,sans-Serif" font-size="10.00">Vector&#45;1&#45;g.AsFinder</text>
</a>
</g>
</g>
<!-- Node1&#45;&gt;Node2 -->
<g id="edge1_Node000001_Node000002" class="edge">
<title>Node1&#45;&gt;Node2</title>
<g id="a_edge1_Node000001_Node000002"><a xlink:title=" ">
<path fill="none" stroke="#63b8ff" d="M267.22,-436.52C264.17,-501.82 247.34,-667.48 156.25,-759 152.97,-762.29 149.26,-765.15 145.28,-767.63"/>
<polygon fill="#63b8ff" stroke="#63b8ff" points="270.71,-436.83 267.6,-426.71 263.72,-436.56 270.71,-436.83"/>
</a>
</g>
</g>
<!-- Node3 -->
<g id="Node000003" class="node">
<title>Node3</title>
<g id="a_Node000003"><a xlink:href="../../d4/de6/struct_system_ex_1_1_collections_1_1_generic_1_1_vector-1-g.html#a40150680219d4b48bc14d69ec9050779" target="_top" xlink:title="Creates a FlexSpan view over the entire vector starting at index 0.">
<polygon fill="white" stroke="#666666" points="154.75,-750 1.5,-750 1.5,-718 154.75,-718 154.75,-750"/>
<text xml:space="preserve" text-anchor="start" x="9.5" y="-736.5" font-family="Helvetica,sans-Serif" font-size="10.00">SystemEx.Collections.Generic.</text>
<text xml:space="preserve" text-anchor="middle" x="78.12" y="-724.5" font-family="Helvetica,sans-Serif" font-size="10.00">Vector&#45;1&#45;g.AsFlexSpan</text>
</a>
</g>
</g>
<!-- Node1&#45;&gt;Node3 -->
<g id="edge2_Node000001_Node000003" class="edge">
<title>Node1&#45;&gt;Node3</title>
<g id="a_edge2_Node000001_Node000003"><a xlink:title=" ">
<path fill="none" stroke="#63b8ff" d="M265.51,-436.57C259.01,-495.15 235.67,-632.91 156.25,-709 152.79,-712.31 148.9,-715.18 144.73,-717.68"/>
<polygon fill="#63b8ff" stroke="#63b8ff" points="268.97,-437.13 266.5,-426.82 262.01,-436.42 268.97,-437.13"/>
</a>
</g>
</g>
<!-- Node4 -->
<g id="Node000004" class="node">
<title>Node4</title>
<g id="a_Node000004"><a xlink:href="../../d4/de6/struct_system_ex_1_1_collections_1_1_generic_1_1_vector-1-g.html#a4680cb39c6d31bd1b29fb71e6aa057fb" target="_top" xlink:title="Creates a FlexSpan view over a specific range of the vector.">
<polygon fill="white" stroke="#666666" points="154.75,-700 1.5,-700 1.5,-668 154.75,-668 154.75,-700"/>
<text xml:space="preserve" text-anchor="start" x="9.5" y="-686.5" font-family="Helvetica,sans-Serif" font-size="10.00">SystemEx.Collections.Generic.</text>
<text xml:space="preserve" text-anchor="middle" x="78.12" y="-674.5" font-family="Helvetica,sans-Serif" font-size="10.00">Vector&#45;1&#45;g.AsFlexSpan</text>
</a>
</g>
</g>
<!-- Node1&#45;&gt;Node4 -->
<g id="edge3_Node000001_Node000004" class="edge">
<title>Node1&#45;&gt;Node4</title>
<g id="a_edge3_Node000001_Node000004"><a xlink:title=" ">
<path fill="none" stroke="#63b8ff" d="M263.18,-436.54C253.01,-487.76 224.16,-597.96 156.25,-659 152.59,-662.29 148.48,-665.15 144.13,-667.64"/>
<polygon fill="#63b8ff" stroke="#63b8ff" points="266.58,-437.38 264.99,-426.91 259.7,-436.09 266.58,-437.38"/>
</a>
</g>
</g>
<!-- Node5 -->
<g id="Node000005" class="node">
<title>Node5</title>
<g id="a_Node000005"><a xlink:href="../../d4/de6/struct_system_ex_1_1_collections_1_1_generic_1_1_vector-1-g.html#a5ce50545b8cf6598623ab722c8c967cd" target="_top" xlink:title="Creates a VectorMultiSet&lt;T, Vector&lt;T&gt;&gt; view over the given vector, allowing duplicate elements while ...">
<polygon fill="white" stroke="#666666" points="154.75,-650 1.5,-650 1.5,-618 154.75,-618 154.75,-650"/>
<text xml:space="preserve" text-anchor="start" x="9.5" y="-636.5" font-family="Helvetica,sans-Serif" font-size="10.00">SystemEx.Collections.Generic.</text>
<text xml:space="preserve" text-anchor="middle" x="78.12" y="-624.5" font-family="Helvetica,sans-Serif" font-size="10.00">Vector&#45;1&#45;g.AsMultiSet</text>
</a>
</g>
</g>
<!-- Node1&#45;&gt;Node5 -->
<g id="edge4_Node000001_Node000005" class="edge">
<title>Node1&#45;&gt;Node5</title>
<g id="a_edge4_Node000001_Node000005"><a xlink:title=" ">
<path fill="none" stroke="#63b8ff" d="M259.9,-436.14C245.93,-479.04 212.97,-562.42 156.25,-609 152.23,-612.31 147.75,-615.18 143.05,-617.67"/>
<polygon fill="#63b8ff" stroke="#63b8ff" points="263.16,-437.45 262.82,-426.86 256.48,-435.35 263.16,-437.45"/>
</a>
</g>
</g>
<!-- Node6 -->
<g id="Node000006" class="node">
<title>Node6</title>
<g id="a_Node000006"><a xlink:href="../../d4/de6/struct_system_ex_1_1_collections_1_1_generic_1_1_vector-1-g.html#a0fedb74cfdf63e07847a0cd40c7acd2b" target="_top" xlink:title="Creates a VectorSearch&lt;U, Vector&lt;U&gt;&gt; wrapper for this vector, enabling search operations using the sp...">
<polygon fill="white" stroke="#666666" points="154.75,-600 1.5,-600 1.5,-568 154.75,-568 154.75,-600"/>
<text xml:space="preserve" text-anchor="start" x="9.5" y="-586.5" font-family="Helvetica,sans-Serif" font-size="10.00">SystemEx.Collections.Generic.</text>
<text xml:space="preserve" text-anchor="middle" x="78.12" y="-574.5" font-family="Helvetica,sans-Serif" font-size="10.00">Vector&#45;1&#45;g.AsSearch&lt; U &gt;</text>
</a>
</g>
</g>
<!-- Node1&#45;&gt;Node6 -->
<g id="edge5_Node000001_Node000006" class="edge">
<title>Node1&#45;&gt;Node6</title>
<g id="a_edge5_Node000001_Node000006"><a xlink:title=" ">
<path fill="none" stroke="#63b8ff" d="M255.03,-435.09C237.28,-468.51 202.19,-526.05 156.25,-559 151.68,-562.28 146.65,-565.15 141.42,-567.65"/>
<polygon fill="#63b8ff" stroke="#63b8ff" points="257.99,-436.98 259.48,-426.49 251.77,-433.77 257.99,-436.98"/>
</a>
</g>
</g>
<!-- Node7 -->
<g id="Node000007" class="node">
<title>Node7</title>
<g id="a_Node000007"><a xlink:href="../../d4/de6/struct_system_ex_1_1_collections_1_1_generic_1_1_vector-1-g.html#a5dd7c9d9215a608b1be69190cc097372" target="_top" xlink:title="Creates a logical segment (sub&#45;Vector) over the internal buffer. The segment shares the same underlyi...">
<polygon fill="white" stroke="#666666" points="154.75,-550 1.5,-550 1.5,-518 154.75,-518 154.75,-550"/>
<text xml:space="preserve" text-anchor="start" x="9.5" y="-536.5" font-family="Helvetica,sans-Serif" font-size="10.00">SystemEx.Collections.Generic.</text>
<text xml:space="preserve" text-anchor="middle" x="78.12" y="-524.5" font-family="Helvetica,sans-Serif" font-size="10.00">Vector&#45;1&#45;g.AsSegment</text>
</a>
</g>
</g>
<!-- Node1&#45;&gt;Node7 -->
<g id="edge6_Node000001_Node000007" class="edge">
<title>Node1&#45;&gt;Node7</title>
<g id="a_edge6_Node000001_Node000007"><a xlink:title=" ">
<path fill="none" stroke="#63b8ff" d="M246.29,-433.48C225.3,-455.95 191.49,-488.73 156.25,-509 150.64,-512.23 144.55,-515.1 138.34,-517.65"/>
<polygon fill="#63b8ff" stroke="#63b8ff" points="248.75,-435.98 252.93,-426.25 243.59,-431.25 248.75,-435.98"/>
</a>
</g>
</g>
<!-- Node8 -->
<g id="Node000008" class="node">
<title>Node8</title>
<g id="a_Node000008"><a xlink:href="../../d4/de6/struct_system_ex_1_1_collections_1_1_generic_1_1_vector-1-g.html#ab4ff431c28d45754964bd8b485be26b4" target="_top" xlink:title="Creates a VectorSet&lt;T, Vector&lt;T&gt;&gt; view over the given vector.">
<polygon fill="white" stroke="#666666" points="154.75,-500 1.5,-500 1.5,-468 154.75,-468 154.75,-500"/>
<text xml:space="preserve" text-anchor="start" x="9.5" y="-486.5" font-family="Helvetica,sans-Serif" font-size="10.00">SystemEx.Collections.Generic.</text>
<text xml:space="preserve" text-anchor="middle" x="78.12" y="-474.5" font-family="Helvetica,sans-Serif" font-size="10.00">Vector&#45;1&#45;g.AsSet</text>
</a>
</g>
</g>
<!-- Node1&#45;&gt;Node8 -->
<g id="edge7_Node000001_Node000008" class="edge">
<title>Node1&#45;&gt;Node8</title>
<g id="a_edge7_Node000001_Node000008"><a xlink:title=" ">
<path fill="none" stroke="#63b8ff" d="M223.85,-430.03C203.5,-439.42 178.86,-450.3 156.25,-459 148.63,-461.93 140.5,-464.82 132.49,-467.53"/>
<polygon fill="#63b8ff" stroke="#63b8ff" points="225.11,-433.31 232.71,-425.92 222.16,-426.96 225.11,-433.31"/>
</a>
</g>
</g>
<!-- Node9 -->
<g id="Node000009" class="node">
<title>Node9</title>
<g id="a_Node000009"><a xlink:href="../../d4/de6/struct_system_ex_1_1_collections_1_1_generic_1_1_vector-1-g.html#a7315e5ff6190013a30eb6a4165c2713c" target="_top" xlink:title="Creates an VectorUnorderedMultiSet&lt;T, Vector&lt;T&gt;&gt; view over the vector, representing a collection that...">
<polygon fill="white" stroke="#666666" points="156.25,-450 0,-450 0,-418 156.25,-418 156.25,-450"/>
<text xml:space="preserve" text-anchor="start" x="8" y="-436.5" font-family="Helvetica,sans-Serif" font-size="10.00">SystemEx.Collections.Generic.</text>
<text xml:space="preserve" text-anchor="middle" x="78.12" y="-424.5" font-family="Helvetica,sans-Serif" font-size="10.00">Vector&#45;1&#45;g.AsUnorderedMultiSet</text>
</a>
</g>
</g>
<!-- Node1&#45;&gt;Node9 -->
<g id="edge8_Node000001_Node000009" class="edge">
<title>Node1&#45;&gt;Node9</title>
<g id="a_edge8_Node000001_Node000009"><a xlink:title=" ">
<path fill="none" stroke="#63b8ff" d="M180.6,-420.56C172.55,-421.63 164.42,-422.7 156.46,-423.76"/>
<polygon fill="#63b8ff" stroke="#63b8ff" points="180.96,-424.04 190.42,-419.26 180.05,-417.1 180.96,-424.04"/>
</a>
</g>
</g>
<!-- Node10 -->
<g id="Node000010" class="node">
<title>Node10</title>
<g id="a_Node000010"><a xlink:href="../../d4/de6/struct_system_ex_1_1_collections_1_1_generic_1_1_vector-1-g.html#aa66c207156a4cba6f7cb8ae97d21252a" target="_top" xlink:title="Creates an VectorUnorderedSet&lt;T, Vector&lt;T&gt;&gt; view over the vector, representing a unique collection wi...">
<polygon fill="white" stroke="#666666" points="154.75,-400 1.5,-400 1.5,-368 154.75,-368 154.75,-400"/>
<text xml:space="preserve" text-anchor="start" x="9.5" y="-386.5" font-family="Helvetica,sans-Serif" font-size="10.00">SystemEx.Collections.Generic.</text>
<text xml:space="preserve" text-anchor="middle" x="78.12" y="-374.5" font-family="Helvetica,sans-Serif" font-size="10.00">Vector&#45;1&#45;g.AsUnorderedSet</text>
</a>
</g>
</g>
<!-- Node1&#45;&gt;Node10 -->
<g id="edge9_Node000001_Node000010" class="edge">
<title>Node1&#45;&gt;Node10</title>
<g id="a_edge9_Node000001_Node000010"><a xlink:title=" ">
<path fill="none" stroke="#63b8ff" d="M180.78,-397.46C172.25,-396.33 163.64,-395.19 155.23,-394.08"/>
<polygon fill="#63b8ff" stroke="#63b8ff" points="180.05,-400.9 190.42,-398.74 180.96,-393.96 180.05,-400.9"/>
</a>
</g>
</g>
<!-- Node11 -->
<g id="Node000011" class="node">
<title>Node11</title>
<g id="a_Node000011"><a xlink:href="../../d4/de6/struct_system_ex_1_1_collections_1_1_generic_1_1_vector-1-g.html#ac3d2d20742534935a487fe8aaf7b3747" target="_top" xlink:title="Copies data from another vector into this vector.">
<polygon fill="white" stroke="#666666" points="154.75,-350 1.5,-350 1.5,-318 154.75,-318 154.75,-350"/>
<text xml:space="preserve" text-anchor="start" x="9.5" y="-336.5" font-family="Helvetica,sans-Serif" font-size="10.00">SystemEx.Collections.Generic.</text>
<text xml:space="preserve" text-anchor="middle" x="78.12" y="-324.5" font-family="Helvetica,sans-Serif" font-size="10.00">Vector&#45;1&#45;g.CopyFrom</text>
</a>
</g>
</g>
<!-- Node1&#45;&gt;Node11 -->
<g id="edge10_Node000001_Node000011" class="edge">
<title>Node1&#45;&gt;Node11</title>
<g id="a_edge10_Node000001_Node000011"><a xlink:title=" ">
<path fill="none" stroke="#63b8ff" d="M223.85,-387.97C203.5,-378.58 178.86,-367.7 156.25,-359 148.63,-356.07 140.5,-353.18 132.49,-350.47"/>
<polygon fill="#63b8ff" stroke="#63b8ff" points="222.16,-391.04 232.71,-392.08 225.11,-384.69 222.16,-391.04"/>
</a>
</g>
</g>
<!-- Node12 -->
<g id="Node000012" class="node">
<title>Node12</title>
<g id="a_Node000012"><a xlink:href="../../d4/de6/struct_system_ex_1_1_collections_1_1_generic_1_1_vector-1-g.html#a03785c2e02ff3b5168c9e40fdf94dc64" target="_top" xlink:title="Copies a range of elements from this vector into another vector.">
<polygon fill="white" stroke="#666666" points="154.75,-300 1.5,-300 1.5,-268 154.75,-268 154.75,-300"/>
<text xml:space="preserve" text-anchor="start" x="9.5" y="-286.5" font-family="Helvetica,sans-Serif" font-size="10.00">SystemEx.Collections.Generic.</text>
<text xml:space="preserve" text-anchor="middle" x="78.12" y="-274.5" font-family="Helvetica,sans-Serif" font-size="10.00">Vector&#45;1&#45;g.CopyTo</text>
</a>
</g>
</g>
<!-- Node1&#45;&gt;Node12 -->
<g id="edge11_Node000001_Node000012" class="edge">
<title>Node1&#45;&gt;Node12</title>
<g id="a_edge11_Node000001_Node000012"><a xlink:title=" ">
<path fill="none" stroke="#63b8ff" d="M246.29,-384.52C225.3,-362.05 191.49,-329.27 156.25,-309 150.64,-305.77 144.55,-302.9 138.34,-300.35"/>
<polygon fill="#63b8ff" stroke="#63b8ff" points="243.59,-386.75 252.93,-391.75 248.75,-382.02 243.59,-386.75"/>
</a>
</g>
</g>
<!-- Node13 -->
<g id="Node000013" class="node">
<title>Node13</title>
<g id="a_Node000013"><a xlink:href="../../d4/de6/struct_system_ex_1_1_collections_1_1_generic_1_1_vector-1-g.html#a4572fc23f33eb6e64327a6dacc0d789d" target="_top" xlink:title="Copies all valid elements of this vector into another vector, starting at the specified destination i...">
<polygon fill="white" stroke="#666666" points="154.75,-232 1.5,-232 1.5,-200 154.75,-200 154.75,-232"/>
<text xml:space="preserve" text-anchor="start" x="9.5" y="-218.5" font-family="Helvetica,sans-Serif" font-size="10.00">SystemEx.Collections.Generic.</text>
<text xml:space="preserve" text-anchor="middle" x="78.12" y="-206.5" font-family="Helvetica,sans-Serif" font-size="10.00">Vector&#45;1&#45;g.CopyTo</text>
</a>
</g>
</g>
<!-- Node1&#45;&gt;Node13 -->
<g id="edge12_Node000001_Node000013" class="edge">
<title>Node1&#45;&gt;Node13</title>
<g id="a_edge12_Node000001_Node000013"><a xlink:title=" ">
<path fill="none" stroke="#63b8ff" d="M253.38,-383.23C234.34,-351.09 198.32,-295.88 156.25,-259 144.26,-248.49 129.29,-239.42 115.73,-232.36"/>
<polygon fill="#63b8ff" stroke="#63b8ff" points="250.14,-384.62 258.2,-391.5 256.19,-381.09 250.14,-384.62"/>
</a>
</g>
</g>
<!-- Node14 -->
<g id="Node000014" class="node">
<title>Node14</title>
<g id="a_Node000014"><a xlink:href="../../d4/de6/struct_system_ex_1_1_collections_1_1_generic_1_1_vector-1-g.html#aced0c18b82c6d11cdc1623446c99623b" target="_top" xlink:title="Create a duplicate from this.">
<polygon fill="white" stroke="#666666" points="154.75,-182 1.5,-182 1.5,-150 154.75,-150 154.75,-182"/>
<text xml:space="preserve" text-anchor="start" x="9.5" y="-168.5" font-family="Helvetica,sans-Serif" font-size="10.00">SystemEx.Collections.Generic.</text>
<text xml:space="preserve" text-anchor="middle" x="78.12" y="-156.5" font-family="Helvetica,sans-Serif" font-size="10.00">Vector&#45;1&#45;g.Duplicate</text>
</a>
</g>
</g>
<!-- Node1&#45;&gt;Node14 -->
<g id="edge14_Node000001_Node000014" class="edge">
<title>Node1&#45;&gt;Node14</title>
<g id="a_edge14_Node000001_Node000014"><a xlink:title=" ">
<path fill="none" stroke="#63b8ff" d="M261.25,-381.75C248.67,-335.77 217,-242.74 156.25,-191 152.39,-187.71 148.09,-184.86 143.56,-182.38"/>
<polygon fill="#63b8ff" stroke="#63b8ff" points="257.79,-382.39 263.72,-391.17 264.56,-380.61 257.79,-382.39"/>
</a>
</g>
</g>
<!-- Node15 -->
<g id="Node000015" class="node">
<title>Node15</title>
<g id="a_Node000015"><a xlink:href="../../d4/de6/struct_system_ex_1_1_collections_1_1_generic_1_1_vector-1-g.html#a51635194e82352f914d21f51a594a44f" target="_top" xlink:title=" ">
<polygon fill="white" stroke="#666666" points="154.75,-132 1.5,-132 1.5,-100 154.75,-100 154.75,-132"/>
<text xml:space="preserve" text-anchor="start" x="9.5" y="-118.5" font-family="Helvetica,sans-Serif" font-size="10.00">SystemEx.Collections.Generic.</text>
<text xml:space="preserve" text-anchor="middle" x="78.12" y="-106.5" font-family="Helvetica,sans-Serif" font-size="10.00">Vector&#45;1&#45;g.operator!=</text>
</a>
</g>
</g>
<!-- Node1&#45;&gt;Node15 -->
<g id="edge15_Node000001_Node000015" class="edge">
<title>Node1&#45;&gt;Node15</title>
<g id="a_edge15_Node000001_Node000015"><a xlink:title=" ">
<path fill="none" stroke="#63b8ff" d="M264.1,-381.42C255.28,-327.46 228.27,-207.4 156.25,-141 152.73,-137.76 148.79,-134.93 144.59,-132.48"/>
<polygon fill="#63b8ff" stroke="#63b8ff" points="260.64,-381.92 265.62,-391.27 267.56,-380.86 260.64,-381.92"/>
</a>
</g>
</g>
<!-- Node16 -->
<g id="Node000016" class="node">
<title>Node16</title>
<g id="a_Node000016"><a xlink:href="../../d4/de6/struct_system_ex_1_1_collections_1_1_generic_1_1_vector-1-g.html#a5eb0a7b91275e25df4e13367d4904f28" target="_top" xlink:title=" ">
<polygon fill="white" stroke="#666666" points="154.75,-82 1.5,-82 1.5,-50 154.75,-50 154.75,-82"/>
<text xml:space="preserve" text-anchor="start" x="9.5" y="-68.5" font-family="Helvetica,sans-Serif" font-size="10.00">SystemEx.Collections.Generic.</text>
<text xml:space="preserve" text-anchor="middle" x="78.12" y="-56.5" font-family="Helvetica,sans-Serif" font-size="10.00">Vector&#45;1&#45;g.operator==</text>
</a>
</g>
</g>
<!-- Node1&#45;&gt;Node16 -->
<g id="edge16_Node000001_Node000016" class="edge">
<title>Node1&#45;&gt;Node16</title>
<g id="a_edge16_Node000001_Node000016"><a xlink:title=" ">
<path fill="none" stroke="#63b8ff" d="M266.19,-381.5C260.96,-320.47 239.88,-172.64 156.25,-91 152.93,-87.76 149.18,-84.93 145.17,-82.47"/>
<polygon fill="#63b8ff" stroke="#63b8ff" points="262.69,-381.62 266.94,-391.32 269.67,-381.08 262.69,-381.62"/>
</a>
</g>
</g>
<!-- Node17 -->
<g id="Node000017" class="node">
<title>Node17</title>
<g id="a_Node000017"><a xlink:href="../../d4/de6/struct_system_ex_1_1_collections_1_1_generic_1_1_vector-1-g.html#a3a7890ec7b86db335c1b549065f5d4d3" target="_top" xlink:title="Copy ctor.">
<polygon fill="white" stroke="#666666" points="154.75,-32 1.5,-32 1.5,0 154.75,0 154.75,-32"/>
<text xml:space="preserve" text-anchor="start" x="9.5" y="-18.5" font-family="Helvetica,sans-Serif" font-size="10.00">SystemEx.Collections.Generic.</text>
<text xml:space="preserve" text-anchor="middle" x="78.12" y="-6.5" font-family="Helvetica,sans-Serif" font-size="10.00">Vector&#45;1&#45;g.Vector</text>
</a>
</g>
</g>
<!-- Node1&#45;&gt;Node17 -->
<g id="edge18_Node000001_Node000017" class="edge">
<title>Node1&#45;&gt;Node17</title>
<g id="a_edge18_Node000001_Node000017"><a xlink:title=" ">
<path fill="none" stroke="#63b8ff" d="M267.73,-381.47C265.86,-313.86 251.55,-138.13 156.25,-41 153,-37.68 149.3,-34.81 145.33,-32.31"/>
<polygon fill="#63b8ff" stroke="#63b8ff" points="264.23,-381.35 267.92,-391.28 271.23,-381.21 264.23,-381.35"/>
</a>
</g>
</g>
<!-- Node13&#45;&gt;Node13 -->
<g id="edge13_Node000013_Node000013" class="edge">
<title>Node13&#45;&gt;Node13</title>
<g id="a_edge13_Node000013_Node000013"><a xlink:title=" ">
<path fill="none" stroke="#63b8ff" d="M109.91,-243.71C104.61,-247.48 94.02,-250 78.12,-250 49.07,-250 37.71,-241.58 44.07,-232.44"/>
<polygon fill="#63b8ff" stroke="#63b8ff" points="113.34,-244.42 111.88,-233.93 106.48,-243.04 113.34,-244.42"/>
</a>
</g>
</g>
</g>
</svg>

<g id="navigator" transform="translate(0 0)" fill="#404254">
  <rect fill="#f2f5e9" fill-opacity="0.5" stroke="#606060" stroke-width=".5" x="0" y="0" width="60" height="60"/>
  <use id="zoomplus" xlink:href="#zoomPlus" x="17" y="9" onmousedown="handleZoom(evt,'in')"/>
  <use id="zoomminus" xlink:href="#zoomMin" x="42" y="9" onmousedown="handleZoom(evt,'out')"/>
  <use id="reset" xlink:href="#resetDef" x="30" y="36" onmousedown="handleReset()"/>
   <use id="arrowup" xlink:href="#arrowUp" x="0" y="0" onmousedown="handlePan(0,-1)"/>
  <use id="arrowright" xlink:href="#arrowRight" x="0" y="0" onmousedown="handlePan(1,0)"/>
  <use id="arrowdown" xlink:href="#arrowDown" x="0" y="0" onmousedown="handlePan(0,1)"/>
  <use id="arrowleft" xlink:href="#arrowLeft" x="0" y="0" onmousedown="handlePan(-1,0)"/>
</g>
<svg viewBox="0 0 15 15" width="100%" height="30px" preserveAspectRatio="xMaxYMin meet">
 <g id="arrow_out" transform="scale(0.3 0.3)">
  <a xlink:href="struct_system_ex_1_1_collections_1_1_generic_1_1_vector-1-g_a7025e8a731e8c455b477752fd3e67801_icgraph_org.svg" target="_base">
   <rect id="button" ry="5" rx="5" y="6" x="6" height="38" width="38"
        fill="#f2f5e9" fill-opacity="0.5" stroke="#606060" stroke-width="1.0"/>
   <path id="arrow"
     d="M 11.500037,31.436501 C 11.940474,20.09759 22.043105,11.32322 32.158766,21.979434 L 37.068811,17.246167 C 37.068811,17.246167 37.088388,32 37.088388,32 L 22.160133,31.978069 C 22.160133,31.978069 26.997745,27.140456 26.997745,27.140456 C 18.528582,18.264221 13.291696,25.230495 11.500037,31.436501 z"
     style="fill:#404040;"/>
  </a>
 </g>
</svg>

<style type='text/css'>
<![CDATA[
[data-mouse-over-selected='false'] { opacity: 0.7; }
[data-mouse-over-selected='true']  { opacity: 1.0; }
]]>
</style>
<script type="application/ecmascript"><![CDATA[
document.addEventListener('DOMContentLoaded', (event) => {
  highlightEdges();
  highlightAdjacentNodes();
});
]]></script>
</svg>
